<svg xmlns="http://www.w3.org/2000/svg" xmlns:xlink="http://www.w3.org/1999/xlink" id="exportSvg" width="600" height="450"><defs/><rect width="600" height="450" transform="translate(0, 0)" fill="rgb(255, 255, 255)" style="fill: rgb(255, 255, 255);"/><g><g id="__svelte-dw-svg" clip-path="url(#rect-mask-9sq4j1uU1xyONqCLQsEZO)"><clipPath id="rect-mask-9sq4j1uU1xyONqCLQsEZO"><rect x="0" y="0" width="600" height="443"/></clipPath><g id="outer-container-svg dw-chart-styles-svg datawrapper-d2MPC-cadg66-svg svelte-crzbxb-svg static-svg" clip-path="url(#rect-mask-Xqusfa7wknVx2fkT3MG6l)"><clipPath id="rect-mask-Xqusfa7wknVx2fkT3MG6l"><rect x="0" y="0" width="600" height="443"/></clipPath><g id="header-svg"><text transform="translate(0, 0)"><tspan fill="rgb(0,0,0)" x="0" y="22" style="font-family: Roboto; font-weight: 700; font-stretch: 100%; font-size: 22px;">A Flurry of Bids</tspan></text></g><g id="chart-svg"><text transform="translate(0, 84.390625)"><tspan fill="rgb(24,24,24)" x="17" y="12.421875" style="font-family: Roboto; font-weight: 400; font-stretch: 100%; font-size: 12px;">Golf</tspan></text><text transform="translate(49.109375, 84.390625)"><tspan fill="rgb(24,24,24)" x="17" y="12.421875" style="font-family: Roboto; font-weight: 400; font-stretch: 100%; font-size: 12px;">Soccer</tspan></text><text transform="translate(113.0625, 84.390625)"><tspan fill="rgb(24,24,24)" x="17" y="12.421875" style="font-family: Roboto; font-weight: 400; font-stretch: 100%; font-size: 12px;">Tennis</tspan></text><text transform="translate(175.34375, 84.390625)"><tspan fill="rgb(24,24,24)" x="17" y="12.421875" style="font-family: Roboto; font-weight: 400; font-stretch: 100%; font-size: 12px;">Formula1</tspan></text><g id="group-svg" clip-path="url(#rect-mask-PeUBhttV192GKhfY42fIy)" transform="translate(263.07813, 35)"><clipPath id="rect-mask-PeUBhttV192GKhfY42fIy"><rect x="0" y="0" width="137.953125" height="111"/></clipPath><g id="group-svg" transform="translate(0.5, 10.5)"><g id="group-svg" transform="translate(50, 84.18861)"><path d="M15.8114 0A15.8114 15.8114 0 1 1-15.8114 0 15.8114 15.8114 0 1 1 15.8114 0" stroke="rgb(181,181,181)" style="fill: none; stroke-width: 1; stroke-linejoin: miter; stroke-linecap: butt; stroke: rgb(181, 181, 181);"/></g><line x1="50" x2="110" y1="68.3772233983162" y2="68.3772233983162" style="fill: none; stroke-width: 1; stroke-linejoin: miter; stroke-linecap: butt; stroke-dasharray: 2, 2; stroke: rgb(181, 181, 181);"/><text transform="translate(-14.21875, 0) translate(150.171875, 72.3772233983162)" style="text-anchor: end;"><tspan fill="rgb(84, 84, 84)" style="font-family: Roboto; font-weight: 400; font-stretch: 100%; font-size: 12px;" x="0" dominant-baseline="auto" y="0">2B</tspan></text></g><g id="group-svg" transform="translate(0.5, 10.5)"><g id="group-svg" transform="translate(50, 68.37722)"><path d="M31.6228 0A31.6228 31.6228 0 1 1-31.6228 0 31.6228 31.6228 0 1 1 31.6228 0" stroke="rgb(181,181,181)" style="fill: none; stroke-width: 1; stroke-linejoin: miter; stroke-linecap: butt; stroke: rgb(181, 181, 181);"/></g><line x1="50" x2="110" y1="36.75444679663241" y2="36.75444679663241" style="fill: none; stroke-width: 1; stroke-linejoin: miter; stroke-linecap: butt; stroke-dasharray: 2, 2; stroke: rgb(181, 181, 181);"/><text transform="translate(-14.21875, 0) translate(150.171875, 40.75444679663241)" style="text-anchor: end;"><tspan fill="rgb(84, 84, 84)" style="font-family: Roboto; font-weight: 400; font-stretch: 100%; font-size: 12px;" x="0" dominant-baseline="auto" y="0">8B</tspan></text></g><g id="group-svg" transform="translate(0.5, 10.5)"><g id="group-svg" transform="translate(50, 50)"><path d="M50 0A50 50 0 1 1-50 0 50 50 0 1 1 50 0" stroke="rgb(181,181,181)" style="fill: none; stroke-width: 1; stroke-linejoin: miter; stroke-linecap: butt; stroke: rgb(181, 181, 181);"/></g><line x1="50" x2="110" y1="0" y2="0" style="fill: none; stroke-width: 1; stroke-linejoin: miter; stroke-linecap: butt; stroke-dasharray: 2, 2; stroke: rgb(181, 181, 181);"/><text transform="translate(-20.95313, 0) translate(156.90625, 4)" style="text-anchor: end;"><tspan fill="rgb(84, 84, 84)" style="font-family: Roboto; font-weight: 400; font-stretch: 100%; font-size: 12px;" x="0" dominant-baseline="auto" y="0">20B</tspan></text></g></g><g id="group-svg" clip-path="url(#rect-mask-Z4D5mWTyRsT5JQBDFRIh6)" transform="translate(0, 159)"><clipPath id="rect-mask-Z4D5mWTyRsT5JQBDFRIh6"><rect x="0" y="0" width="600" height="248"/></clipPath><g id="group-svg" transform="translate(13, 0)"><g id="grid-svg"><g id="y-grid-svg"><g id="y-grid-lines-svg grid-y-svg datawrapper-d2MPC-1fn7900-svg"/></g><g id="x-grid-svg"><g id="x-grid-lines-svg grid-x-svg datawrapper-d2MPC-1fn7900-svg"><line x1="0" x2="0" y1="228" y2="0" transform="translate(81.61972, 0)" style="fill: none; stroke-width: 1; stroke-linejoin: miter; stroke-linecap: butt; stroke: rgb(231, 231, 231);"/><line x1="0" x2="0" y1="228" y2="0" transform="translate(204.71831, 0)" style="fill: none; stroke-width: 1; stroke-linejoin: miter; stroke-linecap: butt; stroke: rgb(231, 231, 231);"/><line x1="0" x2="0" y1="228" y2="0" transform="translate(327.87265, 0)" style="fill: none; stroke-width: 1; stroke-linejoin: miter; stroke-linecap: butt; stroke: rgb(231, 231, 231);"/><line x1="0" x2="0" y1="228" y2="0" transform="translate(448.23944, 0)" style="fill: none; stroke-width: 1; stroke-linejoin: miter; stroke-linecap: butt; stroke: rgb(231, 231, 231);"/><line x1="0" x2="0" y1="228" y2="0" transform="translate(570, 0)" style="fill: none; stroke-width: 1; stroke-linejoin: miter; stroke-linecap: butt; stroke: rgb(231, 231, 231);"/></g></g></g><g id="dots-svg"><g id="dot-svg" transform="translate(529.85915, 114)"><path d="M28.140022129357288,0A28.140022129357288,28.140022129357288,0,1,1,-28.140022129357288,0A28.140022129357288,28.140022129357288,0,1,1,28.140022129357288,0" style="fill: rgb(114, 165, 255); fill-opacity: 0.95;"/></g><g id="dot-svg" transform="translate(0, 114)"><path d="M15.991547078106866,0A15.991547078106866,15.991547078106866,0,1,1,-15.991547078106866,0A15.991547078106866,15.991547078106866,0,1,1,15.991547078106866,0" style="fill: rgb(0, 144, 118); fill-opacity: 0.95;"/></g><g id="dot-svg" transform="translate(570, 114)"><path d="M15.991547078106866,0A15.991547078106866,15.991547078106866,0,1,1,-15.991547078106866,0A15.991547078106866,15.991547078106866,0,1,1,15.991547078106866,0" style="fill: rgb(0, 144, 118); fill-opacity: 0.95;"/></g><g id="dot-svg" transform="translate(327.87265, 114)"><path d="M50,0A50,50,0,1,1,-50,0A50,50,0,1,1,50,0" style="fill: rgb(199, 30, 29); fill-opacity: 0.95;"/></g><g id="dot-svg" transform="translate(548.59155, 114)"><path d="M5.006840444906173,0A5.006840444906173,5.006840444906173,0,1,1,-5.006840444906173,0A5.006840444906173,5.006840444906173,0,1,1,5.006840444906173,0" style="fill: rgb(0, 52, 76); fill-opacity: 0.95;"/></g></g></g></g><g id="front-svg" clip-path="url(#rect-mask-FJe7EvGagOJZWDEyZ85NG)" transform="translate(0, 159)"><clipPath id="rect-mask-FJe7EvGagOJZWDEyZ85NG"><rect x="0" y="0" width="600" height="248"/></clipPath><g id="group-svg" transform="translate(13, 0)"><g id="grid-svg"><g id="y-grid-svg"><g id="y-tick-labels-svg number-axis-svg grid-y-svg datawrapper-d2MPC-15tq65h-svg" transform="translate(-5, 0)"><text transform="translate(0, 118) translate(-7, 0) translate(7, 0)" style="text-anchor: end;"><tspan fill="rgb(116, 116, 116)" style="font-family: Roboto; font-weight: 400; font-stretch: 100%; font-size: 12px;" x="0" dominant-baseline="auto" y="0">0</tspan></text></g><g id="y-base-lines-svg grid-y-svg datawrapper-d2MPC-1io9s9d-svg"><line x1="570" x2="0" y1="0" y2="0" transform="translate(0, 114)" style="fill: none; stroke-width: 1; stroke-linejoin: miter; stroke-linecap: square; stroke: rgb(24, 24, 24);"/></g></g><g id="x-grid-svg"><g id="x-tick-labels-svg date-axis-svg grid-x-svg datawrapper-d2MPC-63wp0p-svg" transform="translate(0, 233)"><text transform="translate(81.61972, 12) translate(-17.62695, 0) translate(17.626953125, 0)" style="text-anchor: middle;"><tspan fill="rgb(116, 116, 116)" style="font-family: Roboto; font-weight: 400; font-stretch: 100%; font-size: 12px;" x="0" dominant-baseline="auto" y="0">Jul ’22</tspan></text><text transform="translate(204.71831, 12) translate(-18.77832, 0) translate(18.7783203125, 0)" style="text-anchor: middle;"><tspan fill="rgb(116, 116, 116)" style="font-family: Roboto; font-weight: 400; font-stretch: 100%; font-size: 12px;" x="0" dominant-baseline="auto" y="0">Oct ’22</tspan></text><text transform="translate(327.87265, 12) translate(-19.3125, 0) translate(19.3125, 0)" style="text-anchor: middle;"><tspan fill="rgb(116, 116, 116)" style="font-family: Roboto; font-weight: 400; font-stretch: 100%; font-size: 12px;" x="0" dominant-baseline="auto" y="0">Jan ’23</tspan></text><text transform="translate(448.23944, 12) translate(-18.73438, 0) translate(18.734375, 0)" style="text-anchor: middle;"><tspan fill="rgb(116, 116, 116)" style="font-family: Roboto; font-weight: 400; font-stretch: 100%; font-size: 12px;" x="0" dominant-baseline="auto" y="0">Apr ’23</tspan></text><text transform="translate(570, 12) translate(-17.5, 0) translate(17.5, 0)" style="text-anchor: middle;"><tspan fill="rgb(116, 116, 116)" style="font-family: Roboto; font-weight: 400; font-stretch: 100%; font-size: 12px;" x="0" dominant-baseline="auto" y="0">Jul ’23</tspan></text></g><g id="x-base-lines-svg grid-x-svg datawrapper-d2MPC-1io9s9d-svg"><line x1="0" x2="0" y1="228" y2="0" style="fill: none; stroke-width: 1; stroke-linejoin: miter; stroke-linecap: square; stroke: rgb(24, 24, 24);"/></g></g></g><path d="M0,114L0.999999991034168,114L1.999999997554773,114L2.999999988588941,114L3.999999995109546,114L4.999999986143714,114L5.9999999926643195,114L6.999999999184925,114L7.999999990219092,114L8.999999996739696,114L9.999999987773865,114L10.999999994294472,114L11.999999985328639,114L12.999999991849243,114L13.99999999836985,114L14.999999989404017,114L15.999999995924622,114L16.999999986958787,114L17.999999993479392,114L19,114L19.999999991034166,114L20.999999997554774,114L21.999999988588943,114L22.999999995109548,114L23.999999986143717,114L24.999999992664318,114L25.999999999184926,114L26.99999999021909,114L27.9999999967397,114L28.999999987773865,114L29.999999994294473,114L30.99999998532864,114L31.999999991849243,114L32.99999999836985,114L33.99999998940402,114L34.999999995924625,114L35.999999986958784,114L36.99999999347939,114L38,114L38.99999999103417,114L39.99999999755477,114L40.99999998858894,114L41.99999999510955,114L42.99999998614371,114L43.99999999266432,114L44.99999999918492,114L45.999999990219095,114L46.999999996739696,114L47.99999998777387,114L48.99999999429447,114L49.999999985328635,114L50.99999999184924,114L51.99999999836985,114L52.99999998940402,114L53.99999999592462,114L54.99999998695879,114L55.9999999934794,114L57,114L57.999999991034166,114L58.999999997554774,114L59.99999998858895,114L60.99999999510954,114L61.99999998614371,114L62.99999999266432,114L63.99999999918493,114L64.9999999902191,114L65.9999999967397,114L66.99999998777386,114L67.99999999429447,114L68.99999998532864,114L69.99999999184925,114L70.99999999836986,114L71.99999998940402,114L72.99999999592461,114L73.99999998695878,114L74.99999999347939,114L76,114L76.99999999103417,114L77.99999999755478,114L78.99999998858895,114L79.99999999510953,114L80.9999999861437,114L81.99999999266431,114L82.99999999918492,114L83.9999999902191,114L84.9999999967397,114L85.99999998777388,114L86.99999999429447,114L87.99999998532864,114L88.99999999184924,114L89.99999999836984,114L90.99999998940402,114L91.99999999592463,114L92.99999998695878,114L93.99999999347939,114L95,114L95.99999999103417,114L96.99999999755477,114L97.99999998858894,114L98.99999999510955,114L99.9999999861437,114L100.99999999266431,114L101.99999999918492,114L102.9999999902191,114L103.9999999967397,114L104.99999998777388,114L105.99999999429447,114L106.99999998532863,114L107.99999999184924,114L108.99999999836984,114L109.99999998940402,114L110.99999999592463,114L111.9999999869588,114L112.9999999934794,114L114,114L114.99999999103416,114L115.99999999755477,114L116.99999998858894,114L117.99999999510955,114L118.99999998614372,114L119.99999999266433,114L120.99999999918494,114L121.99999999021908,114L122.99999999673969,114L123.99999998777386,114L124.99999999429447,114L125.99999998532864,114L126.99999999184925,114L127.99999999836986,114L128.99999998940402,114L129.9999999959246,114L130.99999998695878,114L131.9999999934794,114L133,114L133.99999999103417,114L134.99999999755477,114L135.99999998858894,114L136.99999999510953,114L137.9999999861437,114L138.99999999266433,114L139.99999999918492,114L140.9999999902191,114L141.99999999673972,114L142.9999999877739,114L143.99999999429446,114L144.99999998532863,114L145.99999999184922,114L146.99999999836984,114L147.99999998940402,114L148.9999999959246,114L149.99999998695878,114L150.9999999934794,114L152,114L152.99999999103417,114L153.99999999755477,114L154.99999998858894,114L155.99999999510956,114L156.99999998614373,114L157.99999999266433,114L158.99999999918495,114L159.99999999021907,114L160.9999999967397,114L161.99999998777386,114L162.99999999429446,114L163.99999998532863,114L164.99999999184925,114L165.99999999836984,114L166.99999998940402,114L167.9999999959246,114L168.99999998695878,114L169.9999999934794,114L171,114L171.99999999103417,114L172.9999999975548,114L173.99999998858894,114L174.99999999510956,114L175.99999998614373,114L176.9999999926643,114L177.99999999918492,114L178.9999999902191,114L179.9999999967397,114L180.99999998777386,114L181.99999999429446,114L182.99999998532863,114L183.99999999184925,114L184.99999999836984,114L185.99999998940402,114L186.99999999592464,114L187.99999998695878,114L188.9999999934794,114L190,114L190.99999999103417,114L191.9999999975548,114L192.99999998858897,114L193.99999999510953,114L194.9999999861437,114L195.9999999926643,114L196.99999999918492,114L197.9999999902191,114L198.9999999967397,114L199.99999998777386,114L200.99999999429448,114L201.99999998532863,114L202.99999999184925,114L203.99999999836984,114L204.99999998940402,114L205.99999999592464,114L206.9999999869588,114L207.9999999934794,114L208.99999999999997,114L209.99999999103414,114L210.99999999755477,114L211.99999998858894,114L212.99999999510953,114L213.9999999861437,114L214.9999999926643,114L215.99999999918492,114L216.9999999902191,114L217.9999999967397,114L218.99999998777386,114L219.99999999429448,114L220.99999998532866,114L221.99999999184925,114L222.99999999836984,114L223.99999998940402,114L224.99999999592464,114L225.9999999869588,114L226.99999999347938,114L228,114L228.99999999103414,114L229.99999999755477,114L230.99999998858894,114L231.99999999510953,114L232.9999999861437,114L233.99999999266433,114L234.99999999918492,114L235.9999999902191,114L236.9999999967397,114L237.99999998777386,114L238.99999999429448,114L239.99999998532866,114L240.99999999184925,114L241.99999999836987,114L242.999999989404,114L243.9999999959246,114L244.99999998695878,114L245.99999999347938,114L247,114L247.99999999103417,114L248.99999999755477,114L249.99999998858894,114L250.99999999510953,114L251.9999999861437,114L252.99999999266433,114L253.99999999918492,114L254.9999999902191,114L255.99999999673972,114L256.99999998777383,114L257.99999999429446,114L258.99999998532866,114L259.9999999918492,114L260.99999999836984,114L261.99999998940405,114L262.9999999959246,114L263.9999999869588,114L264.9999999934794,114L266,114L266.9999999910342,114L267.99999999755477,114L268.9999999885889,114L269.99999999510953,114L270.9999999861437,114L271.9999999926643,114L272.9999999991849,114L273.99999999021907,114L274.9999999967397,114L275.9999999877739,114L276.99999999429446,114L277.99999998532866,114L278.9999999918492,114L279.99999999836984,114L280.99999998940405,114L281.9999999959246,114L282.9999999869588,114L283.99999999347943,114L285,114L285.99999999103414,114L286.99999999755477,114L287.9999999885889,114L288.99999999510953,114L289.9999999861437,114L290.99999999266436,114L291.9999999991849,114L292.9999999902191,114L293.9999999967397,114L294.9999999877739,114L295.99999999429446,114L296.99999998532866,114L297.9999999918492,114L298.99999999836984,114L299.999999989404,114L300.99999999592467,114L301.9999999869588,114L302.9999999934794,114L304,114L304.99999999103414,114L305.99999999755477,114L306.9999999885889,114L307.99999999510953,114L308.9999999861437,114L309.99999999266436,114L310.9999999991849,114L311.9999999902191,114L312.9999999967397,114L313.9999999877739,114L314.99999999429446,114L315.99999998532866,114L316.9999999918492,114L317.9999999983699,114L318.99999998940405,114L319.9999999959246,114L320.9999999869588,114L321.9999999934794,114L323,114L323.99999999103414,114L324.99999999755477,114L325.9999999885889,114L326.99999999510953,114L327.9999999861437,114L328.99999999266436,114L329.9999999991849,114L330.9999999902191,114L331.9999999967397,114L332.9999999877739,114L333.99999999429446,114L334.9999999853286,114L335.9999999918492,114L336.99999999836984,114L337.99999998940405,114L338.9999999959246,114L339.9999999869588,114L340.9999999934794,114L342,114L342.99999999103414,114L343.99999999755477,114L344.9999999885889,114L345.9999999951096,114L346.9999999861437,114L347.99999999266436,114L348.9999999991849,114L349.9999999902191,114L350.9999999967397,114L351.9999999877739,114L352.99999999429446,114L353.9999999853286,114L354.9999999918492,114L355.99999999836984,114L356.99999998940405,114L357.9999999959246,114L358.9999999869588,114L359.9999999934794,114L361,114L361.99999999103414,114L362.99999999755477,114L363.9999999885889,114L364.9999999951096,114L365.99999998614373,114L366.99999999266436,114L367.9999999991849,114L368.9999999902191,114L369.9999999967397,114L370.99999998777383,114L371.99999999429446,114L372.9999999853286,114L373.9999999918493,114L374.99999999836984,114L375.99999998940405,114L376.9999999959246,114L377.9999999869588,114L378.9999999934794,114L380,114L380.99999999103414,114L381.9999999975548,114L382.9999999885889,114L383.9999999951096,114L384.99999998614373,114L385.99999999266436,114L386.9999999991849,114L387.99999999021907,114L388.9999999967397,114L389.99999998777383,114L390.99999999429446,114L391.9999999853286,114L392.9999999918493,114L393.99999999836984,114L394.99999998940405,114L395.9999999959246,114L396.9999999869588,114L397.9999999934794,114L399,114L399.99999999103414,114L400.9999999975548,114L401.99999998858897,114L402.9999999951096,114L403.99999998614373,114L404.9999999926643,114L405.9999999991849,114L406.99999999021907,114L407.9999999967397,114L408.99999998777383,114L409.99999999429446,114L410.9999999853286,114L411.9999999918493,114L412.99999999836984,114L413.99999998940405,114L414.9999999959246,114L415.9999999869588,114L416.9999999934794,114L417.99999999999994,114L418.99999999103414,114L419.9999999975548,114L420.99999998858897,114L421.99999999510953,114L422.99999998614373,114L423.9999999926643,114L424.9999999991849,114L425.99999999021907,114L426.9999999967397,114L427.99999998777383,114L428.9999999942945,114L429.9999999853286,114L430.9999999918493,114L431.99999999836984,114L432.99999998940405,114L433.9999999959246,114L434.9999999869588,114L435.9999999934794,114L437.00000000000006,114L437.99999999103414,114L438.99999999755477,114L439.99999998858897,114L440.99999999510953,114L441.99999998614373,114L442.9999999926643,114L443.9999999991849,114L444.99999999021907,114L445.9999999967397,114L446.99999998777383,114L447.9999999942945,114L448.99999998532866,114L449.9999999918493,114L450.99999999836984,114L451.99999998940405,114L452.9999999959246,114L453.99999998695876,114L454.9999999934794,114L456,114L456.9999999910342,114L457.99999999755477,114L458.99999998858897,114L459.99999999510953,114L460.99999998614373,114L461.9999999926643,114L462.9999999991849,114L463.99999999021907,114L464.99999999673975,114L465.99999998777383,114L466.9999999942945,114L467.99999998532866,114L468.9999999918493,114L469.99999999836984,114L470.999999989404,114L471.9999999959246,114L472.99999998695876,114L473.9999999934794,114L475,114L475.9999999910342,114L476.99999999755477,114L477.99999998858897,114L478.99999999510953,114L479.99999998614373,114L480.9999999926643,114L481.9999999991849,114L482.99999999021907,114L483.99999999673975,114L484.9999999877739,114L485.9999999942945,114L486.99999998532866,114L487.9999999918492,114L488.99999999836984,114L489.999999989404,114L490.9999999959246,114L491.99999998695876,114L492.99999999347943,114L494,114L494.9999999910342,114L495.99999999755477,114L496.99999998858897,114L497.99999999510953,114L498.99999998614373,114L499.9999999926643,114L500.9999999991849,114L501.99999999021907,114L502.99999999673975,114L503.9999999877739,114L504.99999999429446,114L505.99999998532866,114L506.9999999918492,114L507.99999999836984,114L508.999999989404,114L509.9999999959246,114L510.99999998695876,114L511.99999999347943,114L513,114L513.9999999910342,114L514.9999999975548,114L515.9999999885889,114L516.9999999951095,114L517.9999999861437,114L518.9999999926642,114L519.999999999185,114L520.9999999902191,114L521.9999999967397,114L522.9999999877739,114L523.9999999942945,114L524.9999999853286,114L525.9999999918492,114L526.9999999983698,114L527.999999989404,114L528.9999999959246,114L529.9999999869588,114L530.9999999934794,114L532,114L532.9999999910342,114L533.9999999975548,114L534.9999999885889,114L535.9999999951095,114L536.9999999861437,114L537.9999999926642,114L538.999999999185,114L539.9999999902191,114L540.9999999967397,114L541.9999999877739,114L542.9999999942945,114L543.9999999853286,114L544.9999999918492,114L545.9999999983698,114L546.999999989404,114L547.9999999959247,114L548.9999999869588,114L549.9999999934794,114L551,114L551.9999999910342,114L552.9999999975547,114L553.9999999885889,114L554.9999999951095,114L555.9999999861437,114L556.9999999926642,114L557.999999999185,114L558.9999999902191,114L559.9999999967397,114L560.9999999877739,114L561.9999999942945,114L562.9999999853286,114L563.9999999918492,114L564.9999999983698,114L565.999999989404,114L566.9999999959247,114L567.9999999869589,114L568.9999999934794,114L570,114" stroke="rgb(24,24,24)" style="fill: none; stroke-width: 1; stroke-linejoin: miter; stroke-linecap: butt; stroke: rgb(24, 24, 24);"/></g></g><g id="X.9-svg"><text transform="translate(583, 253.5)" style="text-anchor: end;"><tspan x="0" y="12" style="font-family: Roboto; font-weight: 700; font-stretch: 100%; font-size: 12px; stroke: rgb(255, 255, 255); stroke-width: 2; stroke-linejoin: round; stroke-linecap: round;">X.9</tspan></text><text transform="translate(583, 253.5)" style="text-anchor: end;"><tspan fill="rgb(116,116,116)" x="0" y="12" style="font-family: Roboto; font-weight: 700; font-stretch: 100%; font-size: 12px;">X.9</tspan></text></g><g id="X.17-svg"><text transform="translate(18.5, 159)"><tspan x="0" y="12" style="font-family: Roboto; font-weight: 700; font-stretch: 100%; font-size: 12px; stroke: rgb(255, 255, 255); stroke-width: 2; stroke-linejoin: round; stroke-linecap: round;">X.17</tspan></text><text transform="translate(18.5, 159)"><tspan fill="rgb(116,116,116)" x="0" y="12" style="font-family: Roboto; font-weight: 700; font-stretch: 100%; font-size: 12px;">X.17</tspan></text></g><g id="svelte-1gf2ad6-svg" transform="translate(340, 273)"><g id="callout-line-svg"><path d="M -113.1637077245313,26.000000000000004 Q -68.1499275356118,-9.638251352693112 -5.894483535508926,-0.918403991159928" stroke="rgb(24,24,24)" style="fill: none; stroke-width: 2; stroke-linejoin: miter; stroke-linecap: butt; stroke: rgb(24, 24, 24);"/><path d="M-8.75,-3.75 L 1,0 L -8.75,3.75" transform="translate(-5.89448, -0.9184) rotate(6.422070940386814) scale(2)" style="fill: rgb(24, 24, 24);"/></g></g><g id="$20B-svg Formula1&#10;bid-svg reportedly-svg rejected-svg by-svg Liberty-svg Media-svg"><text transform="translate(129, 303)"><tspan x="0" y="14" style="font-family: Roboto; font-weight: 400; font-stretch: 100%; font-size: 14px; stroke: rgb(255, 255, 255); stroke-width: 4; stroke-linejoin: round; stroke-linecap: round;">$20B Formula1 </tspan><tspan x="0" y="30.796875" style="font-family: Roboto; font-weight: 400; font-stretch: 100%; font-size: 14px; stroke: rgb(255, 255, 255); stroke-width: 4; stroke-linejoin: round; stroke-linecap: round;">bid reportedly rejected </tspan><tspan x="0" y="47.59375" style="font-family: Roboto; font-weight: 400; font-stretch: 100%; font-size: 14px; stroke: rgb(255, 255, 255); stroke-width: 4; stroke-linejoin: round; stroke-linecap: round;">by Liberty Media </tspan></text><text transform="translate(129, 303)"><tspan x="0" y="14" style="font-family: Roboto; font-weight: 400; font-stretch: 100%; font-size: 14px;">$20B Formula1 </tspan><tspan x="0" y="30.796875" style="font-family: Roboto; font-weight: 400; font-stretch: 100%; font-size: 14px;">bid reportedly rejected </tspan><tspan x="0" y="47.59375" style="font-family: Roboto; font-weight: 400; font-stretch: 100%; font-size: 14px;">by Liberty Media </tspan></text></g><text transform="translate(129, 303)"><tspan fill="rgb(24,24,24)" x="0" y="14" style="font-family: Roboto; font-weight: 400; font-stretch: 100%; font-size: 14px;">$20B Formula1 </tspan><tspan fill="rgb(24,24,24)" x="0" y="30.796875" style="font-family: Roboto; font-weight: 400; font-stretch: 100%; font-size: 14px;">bid reportedly rejected </tspan><tspan fill="rgb(24,24,24)" x="0" y="47.59375" style="font-family: Roboto; font-weight: 400; font-stretch: 100%; font-size: 14px;">by Liberty Media </tspan></text><g id="svelte-1gf2ad6-svg" transform="translate(15, 273)"><g id="callout-line-svg"><path d="M 88.3782727636559,-32.999999999999986 Q 56.250147826675565,-0.4766311896488682 6.088555383555309,0.05187591626047973" stroke="rgb(24,24,24)" style="fill: none; stroke-width: 2; stroke-linejoin: miter; stroke-linecap: butt; stroke: rgb(24, 24, 24);"/><path d="M-8.75,-3.75 L 1,0 L -8.75,3.75" transform="translate(6.08856, 0.05188) rotate(177.49911355924309) scale(2)" style="fill: rgb(24, 24, 24);"/></g></g><text transform="translate(124.3671875, 186)" style="text-anchor: middle;"><tspan fill="rgb(24,24,24)" x="0" y="14" style="font-family: Roboto; font-weight: 400; font-stretch: 100%; font-size: 14px;">LIV golf league</tspan><tspan fill="rgb(24,24,24)" x="0" y="30.796875" style="font-family: Roboto; font-weight: 400; font-stretch: 100%; font-size: 14px;">founded by Saudi</tspan><tspan fill="rgb(24,24,24)" x="0" y="47.59375" style="font-family: Roboto; font-weight: 400; font-stretch: 100%; font-size: 14px;">wealth fund for $2B</tspan></text><g id="svelte-1gf2ad6-svg" transform="translate(538, 273)"><g id="callout-line-svg"><path d="M -90.00000000000001,-86.18098097423365 Q -36.004847229485165,-63.33695488625022 -2.9279983458932564,-5.283902453941024" stroke="rgb(24,24,24)" style="fill: none; stroke-width: 2; stroke-linejoin: miter; stroke-linecap: butt; stroke: rgb(24, 24, 24);"/><path d="M-8.75,-3.75 L 1,0 L -8.75,3.75" transform="translate(-2.928, -5.2839) rotate(59.157501036091986) scale(2)" style="fill: rgb(24, 24, 24);"/></g></g><g id="Qatar's-svg $6.3B-svg bid-svg for-svg Manchester-svg United-svg likely-svg to-svg win-svg"><text transform="translate(292, 147)"><tspan x="0" y="14" style="font-family: Roboto; font-weight: 400; font-stretch: 100%; font-size: 14px; stroke: rgb(255, 255, 255); stroke-width: 4; stroke-linejoin: round; stroke-linecap: round;">Qatar's $6.3B bid for </tspan><tspan x="0" y="30.796875" style="font-family: Roboto; font-weight: 400; font-stretch: 100%; font-size: 14px; stroke: rgb(255, 255, 255); stroke-width: 4; stroke-linejoin: round; stroke-linecap: round;">Manchester United likely </tspan><tspan x="0" y="47.59375" style="font-family: Roboto; font-weight: 400; font-stretch: 100%; font-size: 14px; stroke: rgb(255, 255, 255); stroke-width: 4; stroke-linejoin: round; stroke-linecap: round;">to win</tspan></text><text transform="translate(292, 147)"><tspan x="0" y="14" style="font-family: Roboto; font-weight: 400; font-stretch: 100%; font-size: 14px;">Qatar's $6.3B bid for </tspan><tspan x="0" y="30.796875" style="font-family: Roboto; font-weight: 400; font-stretch: 100%; font-size: 14px;">Manchester United likely </tspan><tspan x="0" y="47.59375" style="font-family: Roboto; font-weight: 400; font-stretch: 100%; font-size: 14px;">to win</tspan></text></g><text transform="translate(292, 147)"><tspan fill="rgb(24,24,24)" x="0" y="14" style="font-family: Roboto; font-weight: 400; font-stretch: 100%; font-size: 14px;">Qatar's $6.3B bid for </tspan><tspan fill="rgb(24,24,24)" x="0" y="30.796875" style="font-family: Roboto; font-weight: 400; font-stretch: 100%; font-size: 14px;">Manchester United likely </tspan><tspan fill="rgb(24,24,24)" x="0" y="47.59375" style="font-family: Roboto; font-weight: 400; font-stretch: 100%; font-size: 14px;">to win</tspan></text><g id="svelte-1gf2ad6-svg" transform="translate(582, 273)"><g id="callout-line-svg"><path d="M -44.12696870819065,63.000000000000014 Q -15.69622842645937,42.85893521564855 -1.9891251116454438,5.7155753623568275" stroke="rgb(24,24,24)" style="fill: none; stroke-width: 2; stroke-linejoin: miter; stroke-linecap: butt; stroke: rgb(24, 24, 24);"/><path d="M-8.75,-3.75 L 1,0 L -8.75,3.75" transform="translate(-1.98913, 5.71558) rotate(-67.88086575928172) scale(2)" style="fill: rgb(24, 24, 24);"/></g></g><text transform="translate(485.25, 340)" style="text-anchor: middle;"><tspan fill="rgb(24,24,24)" x="0" y="14" style="font-family: Roboto; font-weight: 400; font-stretch: 100%; font-size: 14px;">LIV-PGA Tour merger</tspan><tspan fill="rgb(24,24,24)" x="0" y="30.796875" style="font-family: Roboto; font-weight: 400; font-stretch: 100%; font-size: 14px;">proposal</tspan></text><g id="svelte-1gf2ad6-svg" transform="translate(561, 273)"><g id="callout-line-svg"><path d="M 0,-130 L 0,-6" stroke="rgb(24,24,24)" style="fill: none; stroke-width: 2; stroke-linejoin: miter; stroke-linecap: butt; stroke: rgb(24, 24, 24);"/><path d="M-8.75,-3.75 L 1,0 L -8.75,3.75" transform="translate(0, -6) rotate(90.00000250447815) scale(2)" style="fill: rgb(24, 24, 24);"/></g></g><text transform="translate(521, 89)" style="text-anchor: middle;"><tspan fill="rgb(24,24,24)" x="0" y="14" style="font-family: Roboto; font-weight: 400; font-stretch: 100%; font-size: 14px;">Saudi fund offers to</tspan><tspan fill="rgb(24,24,24)" x="0" y="30.796875" style="font-family: Roboto; font-weight: 400; font-stretch: 100%; font-size: 14px;">invest in ATP men's</tspan><tspan fill="rgb(24,24,24)" x="0" y="47.59375" style="font-family: Roboto; font-weight: 400; font-stretch: 100%; font-size: 14px;">tennis circuit</tspan></text><circle r="7" cx="7" cy="92.21875" fill="rgb(0,144,118)"/><circle r="7" cx="56.109375" cy="92.21875" fill="rgb(114,165,255)"/><circle r="7" cx="120.0625" cy="92.21875" fill="rgb(0,52,76)"/><circle r="7" cx="182.34375" cy="92.21875" fill="rgb(199,30,29)"/></g><g id="footer-svg"><text transform="translate(0, 430)"><tspan fill="rgb(136,136,136)" x="0" y="11" style="font-family: Roboto; font-weight: 400; font-stretch: 100%; font-size: 11px;">Source</tspan><tspan fill="rgb(136,136,136)" style="font-family: Roboto; font-weight: 400; font-stretch: 100%; font-size: 11px;">:</tspan><tspan fill="rgb(136,136,136)" dx="2.734375" style="font-family: Roboto; font-weight: 400; font-stretch: 100%; font-size: 11px;">wikipedia</tspan><tspan fill="rgb(136,136,136)" dx="2.734375" style="font-family: Roboto; font-weight: 400; font-stretch: 100%; font-size: 11px;">•</tspan><tspan fill="rgb(136,136,136)" dx="2.734375" style="font-family: Roboto; font-weight: 400; font-stretch: 100%; font-size: 11px;">Created with</tspan><tspan fill="rgb(136,136,136)" dx="2.734375" style="font-family: Roboto; font-weight: 400; font-stretch: 100%; font-size: 11px;">Datawrapper</tspan></text></g></g></g></g></svg>