<svg xmlns="http://www.w3.org/2000/svg" xmlns:xlink="http://www.w3.org/1999/xlink" id="exportSvg" width="600" height="450"><defs/><rect width="600" height="450" transform="translate(0, 0)" fill="rgb(255, 255, 255)" style="fill: rgb(255, 255, 255);"/><g><g id="__svelte-dw-svg" clip-path="url(#rect-mask-WsU80scw2-kdq_uCDacm7)"><clipPath id="rect-mask-WsU80scw2-kdq_uCDacm7"><rect x="0" y="0" width="600" height="443"/></clipPath><g id="outer-container-svg dw-chart-styles-svg datawrapper-d2MPC-cadg66-svg svelte-crzbxb-svg static-svg" clip-path="url(#rect-mask-raWT_OMokkkeq8XMOJV-u)"><clipPath id="rect-mask-raWT_OMokkkeq8XMOJV-u"><rect x="0" y="0" width="600" height="443"/></clipPath><g id="chart-svg"><text transform="translate(0, 49.390625)"><tspan fill="rgb(24,24,24)" x="17" y="12.421875" style="font-family: Roboto; font-weight: 400; font-stretch: 100%; font-size: 12px;">Golf</tspan></text><text transform="translate(49.109375, 49.390625)"><tspan fill="rgb(24,24,24)" x="17" y="12.421875" style="font-family: Roboto; font-weight: 400; font-stretch: 100%; font-size: 12px;">Soccer</tspan></text><text transform="translate(113.0625, 49.390625)"><tspan fill="rgb(24,24,24)" x="17" y="12.421875" style="font-family: Roboto; font-weight: 400; font-stretch: 100%; font-size: 12px;">Tennis</tspan></text><text transform="translate(175.34375, 49.390625)"><tspan fill="rgb(24,24,24)" x="17" y="12.421875" style="font-family: Roboto; font-weight: 400; font-stretch: 100%; font-size: 12px;">Formula1</tspan></text><g id="group-svg" clip-path="url(#rect-mask-p2jghfmqUzRy_gidRIoRM)" transform="translate(263.07813, 0)"><clipPath id="rect-mask-p2jghfmqUzRy_gidRIoRM"><rect x="0" y="0" width="137.953125" height="111"/></clipPath><g id="group-svg" transform="translate(0.5, 10.5)"><g id="group-svg" transform="translate(50, 84.18861)"><path d="M15.8114 0A15.8114 15.8114 0 1 1-15.8114 0 15.8114 15.8114 0 1 1 15.8114 0" stroke="rgb(181,181,181)" style="fill: none; stroke-width: 1; stroke-linejoin: miter; stroke-linecap: butt; stroke: rgb(181, 181, 181);"/></g><line x1="50" x2="110" y1="68.3772233983162" y2="68.3772233983162" style="fill: none; stroke-width: 1; stroke-linejoin: miter; stroke-linecap: butt; stroke-dasharray: 2, 2; stroke: rgb(181, 181, 181);"/><text transform="translate(-14.21875, 0) translate(150.171875, 72.3772233983162)" style="text-anchor: end;"><tspan fill="rgb(84, 84, 84)" style="font-family: Roboto; font-weight: 400; font-stretch: 100%; font-size: 12px;" x="0" dominant-baseline="auto" y="0">2B</tspan></text></g><g id="group-svg" transform="translate(0.5, 10.5)"><g id="group-svg" transform="translate(50, 68.37722)"><path d="M31.6228 0A31.6228 31.6228 0 1 1-31.6228 0 31.6228 31.6228 0 1 1 31.6228 0" stroke="rgb(181,181,181)" style="fill: none; stroke-width: 1; stroke-linejoin: miter; stroke-linecap: butt; stroke: rgb(181, 181, 181);"/></g><line x1="50" x2="110" y1="36.75444679663241" y2="36.75444679663241" style="fill: none; stroke-width: 1; stroke-linejoin: miter; stroke-linecap: butt; stroke-dasharray: 2, 2; stroke: rgb(181, 181, 181);"/><text transform="translate(-14.21875, 0) translate(150.171875, 40.75444679663241)" style="text-anchor: end;"><tspan fill="rgb(84, 84, 84)" style="font-family: Roboto; font-weight: 400; font-stretch: 100%; font-size: 12px;" x="0" dominant-baseline="auto" y="0">8B</tspan></text></g><g id="group-svg" transform="translate(0.5, 10.5)"><g id="group-svg" transform="translate(50, 50)"><path d="M50 0A50 50 0 1 1-50 0 50 50 0 1 1 50 0" stroke="rgb(181,181,181)" style="fill: none; stroke-width: 1; stroke-linejoin: miter; stroke-linecap: butt; stroke: rgb(181, 181, 181);"/></g><line x1="50" x2="110" y1="0" y2="0" style="fill: none; stroke-width: 1; stroke-linejoin: miter; stroke-linecap: butt; stroke-dasharray: 2, 2; stroke: rgb(181, 181, 181);"/><text transform="translate(-20.95313, 0) translate(156.90625, 4)" style="text-anchor: end;"><tspan fill="rgb(84, 84, 84)" style="font-family: Roboto; font-weight: 400; font-stretch: 100%; font-size: 12px;" x="0" dominant-baseline="auto" y="0">20B</tspan></text></g></g><g id="group-svg" clip-path="url(#rect-mask-L6txHM3RBNDZIHP9-qz2E)" transform="translate(0, 124)"><clipPath id="rect-mask-L6txHM3RBNDZIHP9-qz2E"><rect x="0" y="0" width="600" height="283"/></clipPath><g id="group-svg" transform="translate(29.63477, 0)"><g id="grid-svg"><g id="y-grid-svg"><g id="y-grid-lines-svg grid-y-svg datawrapper-d2MPC-1fn7900-svg"/></g><g id="x-grid-svg"><g id="x-grid-lines-svg grid-x-svg datawrapper-d2MPC-1fn7900-svg"><line x1="0" x2="0" y1="263" y2="0" transform="translate(79.18545, 0)" style="fill: none; stroke-width: 1; stroke-linejoin: miter; stroke-linecap: butt; stroke: rgb(231, 231, 231);"/><line x1="0" x2="0" y1="263" y2="0" transform="translate(198.61268, 0)" style="fill: none; stroke-width: 1; stroke-linejoin: miter; stroke-linecap: butt; stroke: rgb(231, 231, 231);"/><line x1="0" x2="0" y1="263" y2="0" transform="translate(318.09399, 0)" style="fill: none; stroke-width: 1; stroke-linejoin: miter; stroke-linecap: butt; stroke: rgb(231, 231, 231);"/><line x1="0" x2="0" y1="263" y2="0" transform="translate(434.87089, 0)" style="fill: none; stroke-width: 1; stroke-linejoin: miter; stroke-linecap: butt; stroke: rgb(231, 231, 231);"/><line x1="0" x2="0" y1="263" y2="0" transform="translate(553, 0)" style="fill: none; stroke-width: 1; stroke-linejoin: miter; stroke-linecap: butt; stroke: rgb(231, 231, 231);"/></g></g></g><g id="dots-svg"><g id="dot-svg" transform="translate(0, 131.5)"><path d="M15.991547078106866,0A15.991547078106866,15.991547078106866,0,1,1,-15.991547078106866,0A15.991547078106866,15.991547078106866,0,1,1,15.991547078106866,0" style="fill: rgb(0, 144, 118); fill-opacity: 0.95;"/></g><g id="dot-svg" transform="translate(553, 131.5)"><path d="M15.991547078106866,0A15.991547078106866,15.991547078106866,0,1,1,-15.991547078106866,0A15.991547078106866,15.991547078106866,0,1,1,15.991547078106866,0" style="fill: rgb(0, 144, 118); fill-opacity: 0.95;"/></g><g id="dot-svg" transform="translate(514.05634, 131.5)"><path d="M28.140022129357288,0A28.140022129357288,28.140022129357288,0,1,1,-28.140022129357288,0A28.140022129357288,28.140022129357288,0,1,1,28.140022129357288,0" style="fill: rgb(0, 106, 255); fill-opacity: 0.95;"/></g><g id="dot-svg" transform="translate(318.09399, 131.5)"><path d="M50,0A50,50,0,1,1,-50,0A50,50,0,1,1,50,0" style="fill: rgb(199, 30, 29); fill-opacity: 0.95;"/></g><g id="dot-svg" transform="translate(532.23005, 131.5)"><path d="M5.006840444906173,0A5.006840444906173,5.006840444906173,0,1,1,-5.006840444906173,0A5.006840444906173,5.006840444906173,0,1,1,5.006840444906173,0" style="fill: rgb(0, 52, 76); fill-opacity: 0.95;"/></g></g></g></g><g id="front-svg" clip-path="url(#rect-mask-vEu1XlyELJVPH3YNRq2CN)" transform="translate(0, 124)"><clipPath id="rect-mask-vEu1XlyELJVPH3YNRq2CN"><rect x="0" y="0" width="600" height="283"/></clipPath><g id="group-svg" transform="translate(29.63477, 0)"><g id="grid-svg"><g id="y-grid-svg"><g id="y-tick-labels-svg number-axis-svg grid-y-svg datawrapper-d2MPC-15tq65h-svg" transform="translate(-5, 0)"><text transform="translate(0, 135.5) translate(-23.63477, 0) translate(23.634765625, 0)" style="text-anchor: end;"><tspan fill="rgb(116, 116, 116)" style="font-family: Roboto; font-weight: 400; font-stretch: 100%; font-size: 12px;" x="0" dominant-baseline="auto" y="0">0.00</tspan></text></g><g id="y-base-lines-svg grid-y-svg datawrapper-d2MPC-1io9s9d-svg"><line x1="553" x2="0" y1="0" y2="0" transform="translate(0, 131.5)" style="fill: none; stroke-width: 1; stroke-linejoin: miter; stroke-linecap: square; stroke: rgb(24, 24, 24);"/></g></g><g id="x-grid-svg"><g id="x-tick-labels-svg date-axis-svg grid-x-svg datawrapper-d2MPC-63wp0p-svg" transform="translate(0, 268)"><text transform="translate(79.18545, 12) translate(-17.62695, 0) translate(17.626953125, 0)" style="text-anchor: middle;"><tspan fill="rgb(116, 116, 116)" style="font-family: Roboto; font-weight: 400; font-stretch: 100%; font-size: 12px;" x="0" dominant-baseline="auto" y="0">Jul ’22</tspan></text><text transform="translate(198.61268, 12) translate(-18.77832, 0) translate(18.7783203125, 0)" style="text-anchor: middle;"><tspan fill="rgb(116, 116, 116)" style="font-family: Roboto; font-weight: 400; font-stretch: 100%; font-size: 12px;" x="0" dominant-baseline="auto" y="0">Oct ’22</tspan></text><text transform="translate(318.09399, 12) translate(-19.3125, 0) translate(19.3125, 0)" style="text-anchor: middle;"><tspan fill="rgb(116, 116, 116)" style="font-family: Roboto; font-weight: 400; font-stretch: 100%; font-size: 12px;" x="0" dominant-baseline="auto" y="0">Jan ’23</tspan></text><text transform="translate(434.87089, 12) translate(-18.73438, 0) translate(18.734375, 0)" style="text-anchor: middle;"><tspan fill="rgb(116, 116, 116)" style="font-family: Roboto; font-weight: 400; font-stretch: 100%; font-size: 12px;" x="0" dominant-baseline="auto" y="0">Apr ’23</tspan></text><text transform="translate(553, 12) translate(-17.5, 0) translate(17.5, 0)" style="text-anchor: middle;"><tspan fill="rgb(116, 116, 116)" style="font-family: Roboto; font-weight: 400; font-stretch: 100%; font-size: 12px;" x="0" dominant-baseline="auto" y="0">Jul ’23</tspan></text></g><g id="x-base-lines-svg grid-x-svg datawrapper-d2MPC-1io9s9d-svg"><line x1="0" x2="0" y1="263" y2="0" style="fill: none; stroke-width: 1; stroke-linejoin: miter; stroke-linecap: square; stroke: rgb(24, 24, 24);"/></g></g></g></g></g><g id="X.9-svg"><text transform="translate(582.625, 236)" style="text-anchor: end;"><tspan x="0" y="12" style="font-family: Roboto; font-weight: 700; font-stretch: 100%; font-size: 12px; stroke: rgb(255, 255, 255); stroke-width: 2; stroke-linejoin: round; stroke-linecap: round;">X.9</tspan></text><text transform="translate(582.625, 236)" style="text-anchor: end;"><tspan fill="rgb(116,116,116)" x="0" y="12" style="font-family: Roboto; font-weight: 700; font-stretch: 100%; font-size: 12px;">X.9</tspan></text></g><g id="X.17-svg"><text transform="translate(35.125, 124)"><tspan x="0" y="12" style="font-family: Roboto; font-weight: 700; font-stretch: 100%; font-size: 12px; stroke: rgb(255, 255, 255); stroke-width: 2; stroke-linejoin: round; stroke-linecap: round;">X.17</tspan></text><text transform="translate(35.125, 124)"><tspan fill="rgb(116,116,116)" x="0" y="12" style="font-family: Roboto; font-weight: 700; font-stretch: 100%; font-size: 12px;">X.17</tspan></text></g><g id="svelte-1gf2ad6-svg" transform="translate(318.625, 256)"><g id="callout-line-svg"><path d="M -83.19790031755512,22.000000000000004 Q -50.853206043759485,-3.7752907028793876 -4.9502333720946705,-0.4401601397455628" stroke="rgb(24,24,24)" style="fill: none; stroke-width: 1; stroke-linejoin: miter; stroke-linecap: butt; stroke: rgb(24, 24, 24);"/><path d="M-4.75,-3.75 L 0,0 L -4.75,3.75" stroke="rgb(24,24,24)" transform="translate(-4.95023, -0.44016) rotate(2.187108261303818)" style="fill: none; stroke-width: 1; stroke-linejoin: miter; stroke-linecap: butt; stroke: rgb(24, 24, 24);"/></g></g><g id="$20B-svg Formula1&#10;bid-svg reportedly-svg rejected-svg by-svg Liberty-svg Media-svg"><text transform="translate(139.625, 282)"><tspan x="0" y="14" style="font-family: Roboto; font-weight: 400; font-stretch: 100%; font-size: 14px; stroke: rgb(255, 255, 255); stroke-width: 4; stroke-linejoin: round; stroke-linecap: round;">$20B Formula1 </tspan><tspan x="0" y="30.796875" style="font-family: Roboto; font-weight: 400; font-stretch: 100%; font-size: 14px; stroke: rgb(255, 255, 255); stroke-width: 4; stroke-linejoin: round; stroke-linecap: round;">bid reportedly rejected </tspan><tspan x="0" y="47.59375" style="font-family: Roboto; font-weight: 400; font-stretch: 100%; font-size: 14px; stroke: rgb(255, 255, 255); stroke-width: 4; stroke-linejoin: round; stroke-linecap: round;">by Liberty Media </tspan></text><text transform="translate(139.625, 282)"><tspan x="0" y="14" style="font-family: Roboto; font-weight: 400; font-stretch: 100%; font-size: 14px;">$20B Formula1 </tspan><tspan x="0" y="30.796875" style="font-family: Roboto; font-weight: 400; font-stretch: 100%; font-size: 14px;">bid reportedly rejected </tspan><tspan x="0" y="47.59375" style="font-family: Roboto; font-weight: 400; font-stretch: 100%; font-size: 14px;">by Liberty Media </tspan></text></g><text transform="translate(139.625, 282)"><tspan fill="rgb(24,24,24)" x="0" y="14" style="font-family: Roboto; font-weight: 400; font-stretch: 100%; font-size: 14px;">$20B Formula1 </tspan><tspan fill="rgb(24,24,24)" x="0" y="30.796875" style="font-family: Roboto; font-weight: 400; font-stretch: 100%; font-size: 14px;">bid reportedly rejected </tspan><tspan fill="rgb(24,24,24)" x="0" y="47.59375" style="font-family: Roboto; font-weight: 400; font-stretch: 100%; font-size: 14px;">by Liberty Media </tspan></text><g id="svelte-1gf2ad6-svg" transform="translate(31.625, 256)"><g id="callout-line-svg"><path d="M 82.02605689386279,-33 Q 52.40399755791992,-1.784552244537041 4.92201252717623,-0.09559454902705479" stroke="rgb(24,24,24)" style="fill: none; stroke-width: 1; stroke-linejoin: miter; stroke-linecap: butt; stroke: rgb(24, 24, 24);"/><path d="M-4.75,-3.75 L 0,0 L -4.75,3.75" stroke="rgb(24,24,24)" transform="translate(4.92201, -0.09559) rotate(175.9772838365146)" style="fill: none; stroke-width: 1; stroke-linejoin: miter; stroke-linecap: butt; stroke: rgb(24, 24, 24);"/></g></g><text transform="translate(133.6171875, 169)" style="text-anchor: middle;"><tspan fill="rgb(24,24,24)" x="0" y="14" style="font-family: Roboto; font-weight: 400; font-stretch: 100%; font-size: 14px;">LIV golf league</tspan><tspan fill="rgb(24,24,24)" x="0" y="30.796875" style="font-family: Roboto; font-weight: 400; font-stretch: 100%; font-size: 14px;">founded by Saudi</tspan><tspan fill="rgb(24,24,24)" x="0" y="47.59375" style="font-family: Roboto; font-weight: 400; font-stretch: 100%; font-size: 14px;">wealth fund</tspan></text><g id="svelte-1gf2ad6-svg" transform="translate(538.625, 256)"><g id="callout-line-svg"><path d="M -115.00000000000001,-93.68835807383064 Q -44.777320957177274,-74.24946815747309 -2.524965858086559,-4.270141412094783" stroke="rgb(24,24,24)" style="fill: none; stroke-width: 1; stroke-linejoin: miter; stroke-linecap: butt; stroke: rgb(24, 24, 24);"/><path d="M-4.75,-3.75 L 0,0 L -4.75,3.75" stroke="rgb(24,24,24)" transform="translate(-2.52497, -4.27014) rotate(57.77989649895055)" style="fill: none; stroke-width: 1; stroke-linejoin: miter; stroke-linecap: butt; stroke: rgb(24, 24, 24);"/></g></g><g id="Qatar's-svg $6.3B-svg bid-svg for-svg Manchester-svg United-svg likely-svg to-svg win-svg"><text transform="translate(292.625, 130)"><tspan x="0" y="14" style="font-family: Roboto; font-weight: 400; font-stretch: 100%; font-size: 14px; stroke: rgb(255, 255, 255); stroke-width: 4; stroke-linejoin: round; stroke-linecap: round;">Qatar's $6.3B bid for </tspan><tspan x="0" y="30.796875" style="font-family: Roboto; font-weight: 400; font-stretch: 100%; font-size: 14px; stroke: rgb(255, 255, 255); stroke-width: 4; stroke-linejoin: round; stroke-linecap: round;">Manchester United </tspan><tspan x="0" y="47.59375" style="font-family: Roboto; font-weight: 400; font-stretch: 100%; font-size: 14px; stroke: rgb(255, 255, 255); stroke-width: 4; stroke-linejoin: round; stroke-linecap: round;">likely to win</tspan></text><text transform="translate(292.625, 130)"><tspan x="0" y="14" style="font-family: Roboto; font-weight: 400; font-stretch: 100%; font-size: 14px;">Qatar's $6.3B bid for </tspan><tspan x="0" y="30.796875" style="font-family: Roboto; font-weight: 400; font-stretch: 100%; font-size: 14px;">Manchester United </tspan><tspan x="0" y="47.59375" style="font-family: Roboto; font-weight: 400; font-stretch: 100%; font-size: 14px;">likely to win</tspan></text></g><text transform="translate(292.625, 130)"><tspan fill="rgb(24,24,24)" x="0" y="14" style="font-family: Roboto; font-weight: 400; font-stretch: 100%; font-size: 14px;">Qatar's $6.3B bid for </tspan><tspan fill="rgb(24,24,24)" x="0" y="30.796875" style="font-family: Roboto; font-weight: 400; font-stretch: 100%; font-size: 14px;">Manchester United </tspan><tspan fill="rgb(24,24,24)" x="0" y="47.59375" style="font-family: Roboto; font-weight: 400; font-stretch: 100%; font-size: 14px;">likely to win</tspan></text><g id="svelte-1gf2ad6-svg" transform="translate(581.625, 256)"><g id="callout-line-svg"><path d="M -44.12696870819065,63.000000000000014 Q -15.33785775063923,42.60505624777857 -1.6459072809687254,4.776486694075614" stroke="rgb(24,24,24)" style="fill: none; stroke-width: 1; stroke-linejoin: miter; stroke-linecap: butt; stroke: rgb(24, 24, 24);"/><path d="M-4.75,-3.75 L 0,0 L -4.75,3.75" stroke="rgb(24,24,24)" transform="translate(-1.64591, 4.77649) rotate(-68.25768651162308)" style="fill: none; stroke-width: 1; stroke-linejoin: miter; stroke-linecap: butt; stroke: rgb(24, 24, 24);"/></g></g><text transform="translate(484.75, 323)" style="text-anchor: middle;"><tspan fill="rgb(24,24,24)" x="0" y="14" style="font-family: Roboto; font-weight: 400; font-stretch: 100%; font-size: 14px;">LIV-PGA Tour merger</tspan><tspan fill="rgb(24,24,24)" x="0" y="30.796875" style="font-family: Roboto; font-weight: 400; font-stretch: 100%; font-size: 14px;">proposal</tspan></text><g id="svelte-1gf2ad6-svg" transform="translate(561.625, 256)"><g id="callout-line-svg"><path d="M 0,-138 L 0,-5" stroke="rgb(24,24,24)" style="fill: none; stroke-width: 1; stroke-linejoin: miter; stroke-linecap: butt; stroke: rgb(24, 24, 24);"/><path d="M-4.75,-3.75 L 0,0 L -4.75,3.75" stroke="rgb(24,24,24)" transform="translate(0, -5) rotate(90.00000250447815)" style="fill: none; stroke-width: 1; stroke-linejoin: miter; stroke-linecap: butt; stroke: rgb(24, 24, 24);"/></g></g><text transform="translate(521.2421875, 80)" style="text-anchor: middle;"><tspan fill="rgb(24,24,24)" x="0" y="14" style="font-family: Roboto; font-weight: 400; font-stretch: 100%; font-size: 14px;">Saudi fund offers to</tspan><tspan fill="rgb(24,24,24)" x="0" y="30.796875" style="font-family: Roboto; font-weight: 400; font-stretch: 100%; font-size: 14px;">invest in ATP tennis tour</tspan></text><circle r="7" cx="7" cy="57.21875" fill="rgb(0,144,118)"/><circle r="7" cx="56.109375" cy="57.21875" fill="rgb(0,106,255)"/><circle r="7" cx="120.0625" cy="57.21875" fill="rgb(0,52,76)"/><circle r="7" cx="182.34375" cy="57.21875" fill="rgb(199,30,29)"/></g><g id="footer-svg"><text transform="translate(0, 430)"><tspan fill="rgb(136,136,136)" x="0" y="11" style="font-family: Roboto; font-weight: 400; font-stretch: 100%; font-size: 11px;">Source</tspan><tspan fill="rgb(136,136,136)" style="font-family: Roboto; font-weight: 400; font-stretch: 100%; font-size: 11px;">:</tspan><tspan fill="rgb(136,136,136)" dx="2.734375" style="font-family: Roboto; font-weight: 400; font-stretch: 100%; font-size: 11px;">wikipedia</tspan><tspan fill="rgb(136,136,136)" dx="2.734375" style="font-family: Roboto; font-weight: 400; font-stretch: 100%; font-size: 11px;">•</tspan><tspan fill="rgb(136,136,136)" dx="2.734375" style="font-family: Roboto; font-weight: 400; font-stretch: 100%; font-size: 11px;">Created with</tspan><tspan fill="rgb(136,136,136)" dx="2.734375" style="font-family: Roboto; font-weight: 400; font-stretch: 100%; font-size: 11px;">Datawrapper</tspan></text></g></g></g></g></svg>