<svg xmlns="http://www.w3.org/2000/svg" xmlns:xlink="http://www.w3.org/1999/xlink" id="exportSvg" width="600" height="450"><defs/><rect width="600" height="450" transform="translate(0, 0)" fill="rgb(255, 255, 255)" style="fill: rgb(255, 255, 255);"/><g><g id="__svelte-dw-svg" clip-path="url(#rect-mask-DsT8VzHSf_fY9T86PkO7N)"><clipPath id="rect-mask-DsT8VzHSf_fY9T86PkO7N"><rect x="0" y="0" width="600" height="443"/></clipPath><g id="outer-container-svg dw-chart-styles-svg datawrapper-d2MPC-cadg66-svg svelte-crzbxb-svg static-svg" clip-path="url(#rect-mask-GhXTpE4inGOZAsCJxP88X)"><clipPath id="rect-mask-GhXTpE4inGOZAsCJxP88X"><rect x="0" y="0" width="600" height="443"/></clipPath><g id="chart-svg"><text transform="translate(0, 49.390625)"><tspan fill="rgb(24,24,24)" x="17" y="12.421875" style="font-family: Roboto; font-weight: 400; font-stretch: 100%; font-size: 12px;">Golf</tspan></text><text transform="translate(49.109375, 49.390625)"><tspan fill="rgb(24,24,24)" x="17" y="12.421875" style="font-family: Roboto; font-weight: 400; font-stretch: 100%; font-size: 12px;">Soccer</tspan></text><text transform="translate(113.0625, 49.390625)"><tspan fill="rgb(24,24,24)" x="17" y="12.421875" style="font-family: Roboto; font-weight: 400; font-stretch: 100%; font-size: 12px;">Tennis</tspan></text><text transform="translate(175.34375, 49.390625)"><tspan fill="rgb(24,24,24)" x="17" y="12.421875" style="font-family: Roboto; font-weight: 400; font-stretch: 100%; font-size: 12px;">Formula1</tspan></text><g id="group-svg" clip-path="url(#rect-mask-uqEoaRfy1LWgiV4ZFaBQB)" transform="translate(263.07813, 0)"><clipPath id="rect-mask-uqEoaRfy1LWgiV4ZFaBQB"><rect x="0" y="0" width="137.953125" height="111"/></clipPath><g id="group-svg" transform="translate(0.5, 10.5)"><g id="group-svg" transform="translate(50, 84.18861)"><path d="M15.8114 0A15.8114 15.8114 0 1 1-15.8114 0 15.8114 15.8114 0 1 1 15.8114 0" stroke="rgb(181,181,181)" style="fill: none; stroke-width: 1; stroke-linejoin: miter; stroke-linecap: butt; stroke: rgb(181, 181, 181);"/></g><line x1="50" x2="110" y1="68.3772233983162" y2="68.3772233983162" style="fill: none; stroke-width: 1; stroke-linejoin: miter; stroke-linecap: butt; stroke-dasharray: 2, 2; stroke: rgb(181, 181, 181);"/><text transform="translate(-14.21875, 0) translate(150.171875, 72.3772233983162)" style="text-anchor: end;"><tspan fill="rgb(84, 84, 84)" style="font-family: Roboto; font-weight: 400; font-stretch: 100%; font-size: 12px;" x="0" dominant-baseline="auto" y="0">2B</tspan></text></g><g id="group-svg" transform="translate(0.5, 10.5)"><g id="group-svg" transform="translate(50, 68.37722)"><path d="M31.6228 0A31.6228 31.6228 0 1 1-31.6228 0 31.6228 31.6228 0 1 1 31.6228 0" stroke="rgb(181,181,181)" style="fill: none; stroke-width: 1; stroke-linejoin: miter; stroke-linecap: butt; stroke: rgb(181, 181, 181);"/></g><line x1="50" x2="110" y1="36.75444679663241" y2="36.75444679663241" style="fill: none; stroke-width: 1; stroke-linejoin: miter; stroke-linecap: butt; stroke-dasharray: 2, 2; stroke: rgb(181, 181, 181);"/><text transform="translate(-14.21875, 0) translate(150.171875, 40.75444679663241)" style="text-anchor: end;"><tspan fill="rgb(84, 84, 84)" style="font-family: Roboto; font-weight: 400; font-stretch: 100%; font-size: 12px;" x="0" dominant-baseline="auto" y="0">8B</tspan></text></g><g id="group-svg" transform="translate(0.5, 10.5)"><g id="group-svg" transform="translate(50, 50)"><path d="M50 0A50 50 0 1 1-50 0 50 50 0 1 1 50 0" stroke="rgb(181,181,181)" style="fill: none; stroke-width: 1; stroke-linejoin: miter; stroke-linecap: butt; stroke: rgb(181, 181, 181);"/></g><line x1="50" x2="110" y1="0" y2="0" style="fill: none; stroke-width: 1; stroke-linejoin: miter; stroke-linecap: butt; stroke-dasharray: 2, 2; stroke: rgb(181, 181, 181);"/><text transform="translate(-20.95313, 0) translate(156.90625, 4)" style="text-anchor: end;"><tspan fill="rgb(84, 84, 84)" style="font-family: Roboto; font-weight: 400; font-stretch: 100%; font-size: 12px;" x="0" dominant-baseline="auto" y="0">20B</tspan></text></g></g><g id="group-svg" clip-path="url(#rect-mask-0JwymOFgz9M_z2ZYOpuXm)" transform="translate(0, 124)"><clipPath id="rect-mask-0JwymOFgz9M_z2ZYOpuXm"><rect x="0" y="0" width="600" height="316"/></clipPath><g id="group-svg" transform="translate(13, 0)"><g id="grid-svg"><g id="y-grid-svg"><g id="y-grid-lines-svg grid-y-svg datawrapper-d2MPC-1fn7900-svg"/></g><g id="x-grid-svg"><g id="x-grid-lines-svg grid-x-svg datawrapper-d2MPC-1fn7900-svg"><line x1="0" x2="0" y1="296" y2="0" transform="translate(81.61972, 0)" style="fill: none; stroke-width: 1; stroke-linejoin: miter; stroke-linecap: butt; stroke: rgb(231, 231, 231);"/><line x1="0" x2="0" y1="296" y2="0" transform="translate(204.71831, 0)" style="fill: none; stroke-width: 1; stroke-linejoin: miter; stroke-linecap: butt; stroke: rgb(231, 231, 231);"/><line x1="0" x2="0" y1="296" y2="0" transform="translate(327.87265, 0)" style="fill: none; stroke-width: 1; stroke-linejoin: miter; stroke-linecap: butt; stroke: rgb(231, 231, 231);"/><line x1="0" x2="0" y1="296" y2="0" transform="translate(448.23944, 0)" style="fill: none; stroke-width: 1; stroke-linejoin: miter; stroke-linecap: butt; stroke: rgb(231, 231, 231);"/><line x1="0" x2="0" y1="296" y2="0" transform="translate(570, 0)" style="fill: none; stroke-width: 1; stroke-linejoin: miter; stroke-linecap: butt; stroke: rgb(231, 231, 231);"/></g></g></g><g id="dots-svg"><g id="dot-svg" transform="translate(529.85915, 148)"><path d="M28.140022129357288,0A28.140022129357288,28.140022129357288,0,1,1,-28.140022129357288,0A28.140022129357288,28.140022129357288,0,1,1,28.140022129357288,0" style="fill: rgb(114, 165, 255); fill-opacity: 0.95;"/></g><g id="dot-svg" transform="translate(0, 148)"><path d="M15.991547078106866,0A15.991547078106866,15.991547078106866,0,1,1,-15.991547078106866,0A15.991547078106866,15.991547078106866,0,1,1,15.991547078106866,0" style="fill: rgb(0, 144, 118); fill-opacity: 0.95;"/></g><g id="dot-svg" transform="translate(570, 148)"><path d="M15.991547078106866,0A15.991547078106866,15.991547078106866,0,1,1,-15.991547078106866,0A15.991547078106866,15.991547078106866,0,1,1,15.991547078106866,0" style="fill: rgb(0, 144, 118); fill-opacity: 0.95;"/></g><g id="dot-svg" transform="translate(327.87265, 148)"><path d="M50,0A50,50,0,1,1,-50,0A50,50,0,1,1,50,0" style="fill: rgb(199, 30, 29); fill-opacity: 0.95;"/></g><g id="dot-svg" transform="translate(548.59155, 148)"><path d="M5.006840444906173,0A5.006840444906173,5.006840444906173,0,1,1,-5.006840444906173,0A5.006840444906173,5.006840444906173,0,1,1,5.006840444906173,0" style="fill: rgb(0, 52, 76); fill-opacity: 0.95;"/></g></g></g></g><g id="front-svg" clip-path="url(#rect-mask-8iY6fHAvFqr6HPI4hAh9i)" transform="translate(0, 124)"><clipPath id="rect-mask-8iY6fHAvFqr6HPI4hAh9i"><rect x="0" y="0" width="600" height="316"/></clipPath><g id="group-svg" transform="translate(13, 0)"><g id="grid-svg"><g id="y-grid-svg"><g id="y-tick-labels-svg number-axis-svg grid-y-svg datawrapper-d2MPC-15tq65h-svg" transform="translate(-5, 0)"><text transform="translate(0, 152) translate(-7, 0) translate(7, 0)" style="text-anchor: end;"><tspan fill="rgb(116, 116, 116)" style="font-family: Roboto; font-weight: 400; font-stretch: 100%; font-size: 12px;" x="0" dominant-baseline="auto" y="0">0</tspan></text></g><g id="y-base-lines-svg grid-y-svg datawrapper-d2MPC-1io9s9d-svg"><line x1="570" x2="0" y1="0" y2="0" transform="translate(0, 148)" style="fill: none; stroke-width: 1; stroke-linejoin: miter; stroke-linecap: square; stroke: rgb(24, 24, 24);"/></g></g><g id="x-grid-svg"><g id="x-tick-labels-svg date-axis-svg grid-x-svg datawrapper-d2MPC-63wp0p-svg" transform="translate(0, 301)"><text transform="translate(81.61972, 12) translate(-17.62695, 0) translate(17.626953125, 0)" style="text-anchor: middle;"><tspan fill="rgb(116, 116, 116)" style="font-family: Roboto; font-weight: 400; font-stretch: 100%; font-size: 12px;" x="0" dominant-baseline="auto" y="0">Jul ’22</tspan></text><text transform="translate(204.71831, 12) translate(-18.77832, 0) translate(18.7783203125, 0)" style="text-anchor: middle;"><tspan fill="rgb(116, 116, 116)" style="font-family: Roboto; font-weight: 400; font-stretch: 100%; font-size: 12px;" x="0" dominant-baseline="auto" y="0">Oct ’22</tspan></text><text transform="translate(327.87265, 12) translate(-19.3125, 0) translate(19.3125, 0)" style="text-anchor: middle;"><tspan fill="rgb(116, 116, 116)" style="font-family: Roboto; font-weight: 400; font-stretch: 100%; font-size: 12px;" x="0" dominant-baseline="auto" y="0">Jan ’23</tspan></text><text transform="translate(448.23944, 12) translate(-18.73438, 0) translate(18.734375, 0)" style="text-anchor: middle;"><tspan fill="rgb(116, 116, 116)" style="font-family: Roboto; font-weight: 400; font-stretch: 100%; font-size: 12px;" x="0" dominant-baseline="auto" y="0">Apr ’23</tspan></text><text transform="translate(570, 12) translate(-17.5, 0) translate(17.5, 0)" style="text-anchor: middle;"><tspan fill="rgb(116, 116, 116)" style="font-family: Roboto; font-weight: 400; font-stretch: 100%; font-size: 12px;" x="0" dominant-baseline="auto" y="0">Jul ’23</tspan></text></g><g id="x-base-lines-svg grid-x-svg datawrapper-d2MPC-1io9s9d-svg"><line x1="0" x2="0" y1="296" y2="0" style="fill: none; stroke-width: 1; stroke-linejoin: miter; stroke-linecap: square; stroke: rgb(24, 24, 24);"/></g></g></g><path d="M0,148L0.999999991034168,148L1.999999997554773,148L2.999999988588941,148L3.999999995109546,148L4.999999986143714,148L5.9999999926643195,148L6.999999999184925,148L7.999999990219092,148L8.999999996739696,148L9.999999987773865,148L10.999999994294472,148L11.999999985328639,148L12.999999991849243,148L13.99999999836985,148L14.999999989404017,148L15.999999995924622,148L16.999999986958787,148L17.999999993479392,148L19,148L19.999999991034166,148L20.999999997554774,148L21.999999988588943,148L22.999999995109548,148L23.999999986143717,148L24.999999992664318,148L25.999999999184926,148L26.99999999021909,148L27.9999999967397,148L28.999999987773865,148L29.999999994294473,148L30.99999998532864,148L31.999999991849243,148L32.99999999836985,148L33.99999998940402,148L34.999999995924625,148L35.999999986958784,148L36.99999999347939,148L38,148L38.99999999103417,148L39.99999999755477,148L40.99999998858894,148L41.99999999510955,148L42.99999998614371,148L43.99999999266432,148L44.99999999918492,148L45.999999990219095,148L46.999999996739696,148L47.99999998777387,148L48.99999999429447,148L49.999999985328635,148L50.99999999184924,148L51.99999999836985,148L52.99999998940402,148L53.99999999592462,148L54.99999998695879,148L55.9999999934794,148L57,148L57.999999991034166,148L58.999999997554774,148L59.99999998858895,148L60.99999999510954,148L61.99999998614371,148L62.99999999266432,148L63.99999999918493,148L64.9999999902191,148L65.9999999967397,148L66.99999998777386,148L67.99999999429447,148L68.99999998532864,148L69.99999999184925,148L70.99999999836986,148L71.99999998940402,148L72.99999999592461,148L73.99999998695878,148L74.99999999347939,148L76,148L76.99999999103417,148L77.99999999755478,148L78.99999998858895,148L79.99999999510953,148L80.9999999861437,148L81.99999999266431,148L82.99999999918492,148L83.9999999902191,148L84.9999999967397,148L85.99999998777388,148L86.99999999429447,148L87.99999998532864,148L88.99999999184924,148L89.99999999836984,148L90.99999998940402,148L91.99999999592463,148L92.99999998695878,148L93.99999999347939,148L95,148L95.99999999103417,148L96.99999999755477,148L97.99999998858894,148L98.99999999510955,148L99.9999999861437,148L100.99999999266431,148L101.99999999918492,148L102.9999999902191,148L103.9999999967397,148L104.99999998777388,148L105.99999999429447,148L106.99999998532863,148L107.99999999184924,148L108.99999999836984,148L109.99999998940402,148L110.99999999592463,148L111.9999999869588,148L112.9999999934794,148L114,148L114.99999999103416,148L115.99999999755477,148L116.99999998858894,148L117.99999999510955,148L118.99999998614372,148L119.99999999266433,148L120.99999999918494,148L121.99999999021908,148L122.99999999673969,148L123.99999998777386,148L124.99999999429447,148L125.99999998532864,148L126.99999999184925,148L127.99999999836986,148L128.99999998940402,148L129.9999999959246,148L130.99999998695878,148L131.9999999934794,148L133,148L133.99999999103417,148L134.99999999755477,148L135.99999998858894,148L136.99999999510953,148L137.9999999861437,148L138.99999999266433,148L139.99999999918492,148L140.9999999902191,148L141.99999999673972,148L142.9999999877739,148L143.99999999429446,148L144.99999998532863,148L145.99999999184922,148L146.99999999836984,148L147.99999998940402,148L148.9999999959246,148L149.99999998695878,148L150.9999999934794,148L152,148L152.99999999103417,148L153.99999999755477,148L154.99999998858894,148L155.99999999510956,148L156.99999998614373,148L157.99999999266433,148L158.99999999918495,148L159.99999999021907,148L160.9999999967397,148L161.99999998777386,148L162.99999999429446,148L163.99999998532863,148L164.99999999184925,148L165.99999999836984,148L166.99999998940402,148L167.9999999959246,148L168.99999998695878,148L169.9999999934794,148L171,148L171.99999999103417,148L172.9999999975548,148L173.99999998858894,148L174.99999999510956,148L175.99999998614373,148L176.9999999926643,148L177.99999999918492,148L178.9999999902191,148L179.9999999967397,148L180.99999998777386,148L181.99999999429446,148L182.99999998532863,148L183.99999999184925,148L184.99999999836984,148L185.99999998940402,148L186.99999999592464,148L187.99999998695878,148L188.9999999934794,148L190,148L190.99999999103417,148L191.9999999975548,148L192.99999998858897,148L193.99999999510953,148L194.9999999861437,148L195.9999999926643,148L196.99999999918492,148L197.9999999902191,148L198.9999999967397,148L199.99999998777386,148L200.99999999429448,148L201.99999998532863,148L202.99999999184925,148L203.99999999836984,148L204.99999998940402,148L205.99999999592464,148L206.9999999869588,148L207.9999999934794,148L208.99999999999997,148L209.99999999103414,148L210.99999999755477,148L211.99999998858894,148L212.99999999510953,148L213.9999999861437,148L214.9999999926643,148L215.99999999918492,148L216.9999999902191,148L217.9999999967397,148L218.99999998777386,148L219.99999999429448,148L220.99999998532866,148L221.99999999184925,148L222.99999999836984,148L223.99999998940402,148L224.99999999592464,148L225.9999999869588,148L226.99999999347938,148L228,148L228.99999999103414,148L229.99999999755477,148L230.99999998858894,148L231.99999999510953,148L232.9999999861437,148L233.99999999266433,148L234.99999999918492,148L235.9999999902191,148L236.9999999967397,148L237.99999998777386,148L238.99999999429448,148L239.99999998532866,148L240.99999999184925,148L241.99999999836987,148L242.999999989404,148L243.9999999959246,148L244.99999998695878,148L245.99999999347938,148L247,148L247.99999999103417,148L248.99999999755477,148L249.99999998858894,148L250.99999999510953,148L251.9999999861437,148L252.99999999266433,148L253.99999999918492,148L254.9999999902191,148L255.99999999673972,148L256.99999998777383,148L257.99999999429446,148L258.99999998532866,148L259.9999999918492,148L260.99999999836984,148L261.99999998940405,148L262.9999999959246,148L263.9999999869588,148L264.9999999934794,148L266,148L266.9999999910342,148L267.99999999755477,148L268.9999999885889,148L269.99999999510953,148L270.9999999861437,148L271.9999999926643,148L272.9999999991849,148L273.99999999021907,148L274.9999999967397,148L275.9999999877739,148L276.99999999429446,148L277.99999998532866,148L278.9999999918492,148L279.99999999836984,148L280.99999998940405,148L281.9999999959246,148L282.9999999869588,148L283.99999999347943,148L285,148L285.99999999103414,148L286.99999999755477,148L287.9999999885889,148L288.99999999510953,148L289.9999999861437,148L290.99999999266436,148L291.9999999991849,148L292.9999999902191,148L293.9999999967397,148L294.9999999877739,148L295.99999999429446,148L296.99999998532866,148L297.9999999918492,148L298.99999999836984,148L299.999999989404,148L300.99999999592467,148L301.9999999869588,148L302.9999999934794,148L304,148L304.99999999103414,148L305.99999999755477,148L306.9999999885889,148L307.99999999510953,148L308.9999999861437,148L309.99999999266436,148L310.9999999991849,148L311.9999999902191,148L312.9999999967397,148L313.9999999877739,148L314.99999999429446,148L315.99999998532866,148L316.9999999918492,148L317.9999999983699,148L318.99999998940405,148L319.9999999959246,148L320.9999999869588,148L321.9999999934794,148L323,148L323.99999999103414,148L324.99999999755477,148L325.9999999885889,148L326.99999999510953,148L327.9999999861437,148L328.99999999266436,148L329.9999999991849,148L330.9999999902191,148L331.9999999967397,148L332.9999999877739,148L333.99999999429446,148L334.9999999853286,148L335.9999999918492,148L336.99999999836984,148L337.99999998940405,148L338.9999999959246,148L339.9999999869588,148L340.9999999934794,148L342,148L342.99999999103414,148L343.99999999755477,148L344.9999999885889,148L345.9999999951096,148L346.9999999861437,148L347.99999999266436,148L348.9999999991849,148L349.9999999902191,148L350.9999999967397,148L351.9999999877739,148L352.99999999429446,148L353.9999999853286,148L354.9999999918492,148L355.99999999836984,148L356.99999998940405,148L357.9999999959246,148L358.9999999869588,148L359.9999999934794,148L361,148L361.99999999103414,148L362.99999999755477,148L363.9999999885889,148L364.9999999951096,148L365.99999998614373,148L366.99999999266436,148L367.9999999991849,148L368.9999999902191,148L369.9999999967397,148L370.99999998777383,148L371.99999999429446,148L372.9999999853286,148L373.9999999918493,148L374.99999999836984,148L375.99999998940405,148L376.9999999959246,148L377.9999999869588,148L378.9999999934794,148L380,148L380.99999999103414,148L381.9999999975548,148L382.9999999885889,148L383.9999999951096,148L384.99999998614373,148L385.99999999266436,148L386.9999999991849,148L387.99999999021907,148L388.9999999967397,148L389.99999998777383,148L390.99999999429446,148L391.9999999853286,148L392.9999999918493,148L393.99999999836984,148L394.99999998940405,148L395.9999999959246,148L396.9999999869588,148L397.9999999934794,148L399,148L399.99999999103414,148L400.9999999975548,148L401.99999998858897,148L402.9999999951096,148L403.99999998614373,148L404.9999999926643,148L405.9999999991849,148L406.99999999021907,148L407.9999999967397,148L408.99999998777383,148L409.99999999429446,148L410.9999999853286,148L411.9999999918493,148L412.99999999836984,148L413.99999998940405,148L414.9999999959246,148L415.9999999869588,148L416.9999999934794,148L417.99999999999994,148L418.99999999103414,148L419.9999999975548,148L420.99999998858897,148L421.99999999510953,148L422.99999998614373,148L423.9999999926643,148L424.9999999991849,148L425.99999999021907,148L426.9999999967397,148L427.99999998777383,148L428.9999999942945,148L429.9999999853286,148L430.9999999918493,148L431.99999999836984,148L432.99999998940405,148L433.9999999959246,148L434.9999999869588,148L435.9999999934794,148L437.00000000000006,148L437.99999999103414,148L438.99999999755477,148L439.99999998858897,148L440.99999999510953,148L441.99999998614373,148L442.9999999926643,148L443.9999999991849,148L444.99999999021907,148L445.9999999967397,148L446.99999998777383,148L447.9999999942945,148L448.99999998532866,148L449.9999999918493,148L450.99999999836984,148L451.99999998940405,148L452.9999999959246,148L453.99999998695876,148L454.9999999934794,148L456,148L456.9999999910342,148L457.99999999755477,148L458.99999998858897,148L459.99999999510953,148L460.99999998614373,148L461.9999999926643,148L462.9999999991849,148L463.99999999021907,148L464.99999999673975,148L465.99999998777383,148L466.9999999942945,148L467.99999998532866,148L468.9999999918493,148L469.99999999836984,148L470.999999989404,148L471.9999999959246,148L472.99999998695876,148L473.9999999934794,148L475,148L475.9999999910342,148L476.99999999755477,148L477.99999998858897,148L478.99999999510953,148L479.99999998614373,148L480.9999999926643,148L481.9999999991849,148L482.99999999021907,148L483.99999999673975,148L484.9999999877739,148L485.9999999942945,148L486.99999998532866,148L487.9999999918492,148L488.99999999836984,148L489.999999989404,148L490.9999999959246,148L491.99999998695876,148L492.99999999347943,148L494,148L494.9999999910342,148L495.99999999755477,148L496.99999998858897,148L497.99999999510953,148L498.99999998614373,148L499.9999999926643,148L500.9999999991849,148L501.99999999021907,148L502.99999999673975,148L503.9999999877739,148L504.99999999429446,148L505.99999998532866,148L506.9999999918492,148L507.99999999836984,148L508.999999989404,148L509.9999999959246,148L510.99999998695876,148L511.99999999347943,148L513,148L513.9999999910342,148L514.9999999975548,148L515.9999999885889,148L516.9999999951095,148L517.9999999861437,148L518.9999999926642,148L519.999999999185,148L520.9999999902191,148L521.9999999967397,148L522.9999999877739,148L523.9999999942945,148L524.9999999853286,148L525.9999999918492,148L526.9999999983698,148L527.999999989404,148L528.9999999959246,148L529.9999999869588,148L530.9999999934794,148L532,148L532.9999999910342,148L533.9999999975548,148L534.9999999885889,148L535.9999999951095,148L536.9999999861437,148L537.9999999926642,148L538.999999999185,148L539.9999999902191,148L540.9999999967397,148L541.9999999877739,148L542.9999999942945,148L543.9999999853286,148L544.9999999918492,148L545.9999999983698,148L546.999999989404,148L547.9999999959247,148L548.9999999869588,148L549.9999999934794,148L551,148L551.9999999910342,148L552.9999999975547,148L553.9999999885889,148L554.9999999951095,148L555.9999999861437,148L556.9999999926642,148L557.999999999185,148L558.9999999902191,148L559.9999999967397,148L560.9999999877739,148L561.9999999942945,148L562.9999999853286,148L563.9999999918492,148L564.9999999983698,148L565.999999989404,148L566.9999999959247,148L567.9999999869589,148L568.9999999934794,148L570,148" stroke="rgb(24,24,24)" style="fill: none; stroke-width: 1; stroke-linejoin: miter; stroke-linecap: butt; stroke: rgb(24, 24, 24);"/></g></g><g id="X.9-svg"><text transform="translate(583, 252.5)" style="text-anchor: end;"><tspan x="0" y="12" style="font-family: Roboto; font-weight: 700; font-stretch: 100%; font-size: 12px; stroke: rgb(255, 255, 255); stroke-width: 2; stroke-linejoin: round; stroke-linecap: round;">X.9</tspan></text><text transform="translate(583, 252.5)" style="text-anchor: end;"><tspan fill="rgb(116,116,116)" x="0" y="12" style="font-family: Roboto; font-weight: 700; font-stretch: 100%; font-size: 12px;">X.9</tspan></text></g><g id="X.17-svg"><text transform="translate(18.5, 124)"><tspan x="0" y="12" style="font-family: Roboto; font-weight: 700; font-stretch: 100%; font-size: 12px; stroke: rgb(255, 255, 255); stroke-width: 2; stroke-linejoin: round; stroke-linecap: round;">X.17</tspan></text><text transform="translate(18.5, 124)"><tspan fill="rgb(116,116,116)" x="0" y="12" style="font-family: Roboto; font-weight: 700; font-stretch: 100%; font-size: 12px;">X.17</tspan></text></g><g id="svelte-1gf2ad6-svg" transform="translate(340, 272)"><g id="callout-line-svg"><path d="M -113.1637077245313,26.000000000000004 Q -68.1499275356118,-9.638251352693112 -5.894483535508926,-0.918403991159928" stroke="rgb(24,24,24)" style="fill: none; stroke-width: 2; stroke-linejoin: miter; stroke-linecap: butt; stroke: rgb(24, 24, 24);"/><path d="M-8.75,-3.75 L 1,0 L -8.75,3.75" transform="translate(-5.89448, -0.9184) rotate(6.422070940386814) scale(2)" style="fill: rgb(24, 24, 24);"/></g></g><g id="$20B-svg Formula1&#10;bid-svg reportedly-svg rejected-svg by-svg Liberty-svg Media-svg"><text transform="translate(129, 302)"><tspan x="0" y="14" style="font-family: Roboto; font-weight: 400; font-stretch: 100%; font-size: 14px; stroke: rgb(255, 255, 255); stroke-width: 4; stroke-linejoin: round; stroke-linecap: round;">$20B Formula1 </tspan><tspan x="0" y="30.796875" style="font-family: Roboto; font-weight: 400; font-stretch: 100%; font-size: 14px; stroke: rgb(255, 255, 255); stroke-width: 4; stroke-linejoin: round; stroke-linecap: round;">bid reportedly rejected </tspan><tspan x="0" y="47.59375" style="font-family: Roboto; font-weight: 400; font-stretch: 100%; font-size: 14px; stroke: rgb(255, 255, 255); stroke-width: 4; stroke-linejoin: round; stroke-linecap: round;">by Liberty Media </tspan></text><text transform="translate(129, 302)"><tspan x="0" y="14" style="font-family: Roboto; font-weight: 400; font-stretch: 100%; font-size: 14px;">$20B Formula1 </tspan><tspan x="0" y="30.796875" style="font-family: Roboto; font-weight: 400; font-stretch: 100%; font-size: 14px;">bid reportedly rejected </tspan><tspan x="0" y="47.59375" style="font-family: Roboto; font-weight: 400; font-stretch: 100%; font-size: 14px;">by Liberty Media </tspan></text></g><text transform="translate(129, 302)"><tspan fill="rgb(24,24,24)" x="0" y="14" style="font-family: Roboto; font-weight: 400; font-stretch: 100%; font-size: 14px;">$20B Formula1 </tspan><tspan fill="rgb(24,24,24)" x="0" y="30.796875" style="font-family: Roboto; font-weight: 400; font-stretch: 100%; font-size: 14px;">bid reportedly rejected </tspan><tspan fill="rgb(24,24,24)" x="0" y="47.59375" style="font-family: Roboto; font-weight: 400; font-stretch: 100%; font-size: 14px;">by Liberty Media </tspan></text><g id="svelte-1gf2ad6-svg" transform="translate(15, 272)"><g id="callout-line-svg"><path d="M 88.3782727636559,-32.999999999999986 Q 56.250147826675565,-0.4766311896488682 6.088555383555309,0.05187591626047973" stroke="rgb(24,24,24)" style="fill: none; stroke-width: 2; stroke-linejoin: miter; stroke-linecap: butt; stroke: rgb(24, 24, 24);"/><path d="M-8.75,-3.75 L 1,0 L -8.75,3.75" transform="translate(6.08856, 0.05188) rotate(177.49911355924309) scale(2)" style="fill: rgb(24, 24, 24);"/></g></g><text transform="translate(124.3671875, 185)" style="text-anchor: middle;"><tspan fill="rgb(24,24,24)" x="0" y="14" style="font-family: Roboto; font-weight: 400; font-stretch: 100%; font-size: 14px;">LIV golf league</tspan><tspan fill="rgb(24,24,24)" x="0" y="30.796875" style="font-family: Roboto; font-weight: 400; font-stretch: 100%; font-size: 14px;">founded by Saudi</tspan><tspan fill="rgb(24,24,24)" x="0" y="47.59375" style="font-family: Roboto; font-weight: 400; font-stretch: 100%; font-size: 14px;">wealth fund for $2B</tspan></text><g id="svelte-1gf2ad6-svg" transform="translate(538, 272)"><g id="callout-line-svg"><path d="M -90.00000000000001,-86.18098097423365 Q -36.004847229485165,-63.33695488625022 -2.9279983458932564,-5.283902453941024" stroke="rgb(24,24,24)" style="fill: none; stroke-width: 2; stroke-linejoin: miter; stroke-linecap: butt; stroke: rgb(24, 24, 24);"/><path d="M-8.75,-3.75 L 1,0 L -8.75,3.75" transform="translate(-2.928, -5.2839) rotate(59.157501036091986) scale(2)" style="fill: rgb(24, 24, 24);"/></g></g><g id="Qatar's-svg $6.3B-svg bid-svg for-svg Manchester-svg United-svg likely-svg to-svg win-svg"><text transform="translate(292, 146)"><tspan x="0" y="14" style="font-family: Roboto; font-weight: 400; font-stretch: 100%; font-size: 14px; stroke: rgb(255, 255, 255); stroke-width: 4; stroke-linejoin: round; stroke-linecap: round;">Qatar's $6.3B bid for </tspan><tspan x="0" y="30.796875" style="font-family: Roboto; font-weight: 400; font-stretch: 100%; font-size: 14px; stroke: rgb(255, 255, 255); stroke-width: 4; stroke-linejoin: round; stroke-linecap: round;">Manchester United likely </tspan><tspan x="0" y="47.59375" style="font-family: Roboto; font-weight: 400; font-stretch: 100%; font-size: 14px; stroke: rgb(255, 255, 255); stroke-width: 4; stroke-linejoin: round; stroke-linecap: round;">to win</tspan></text><text transform="translate(292, 146)"><tspan x="0" y="14" style="font-family: Roboto; font-weight: 400; font-stretch: 100%; font-size: 14px;">Qatar's $6.3B bid for </tspan><tspan x="0" y="30.796875" style="font-family: Roboto; font-weight: 400; font-stretch: 100%; font-size: 14px;">Manchester United likely </tspan><tspan x="0" y="47.59375" style="font-family: Roboto; font-weight: 400; font-stretch: 100%; font-size: 14px;">to win</tspan></text></g><text transform="translate(292, 146)"><tspan fill="rgb(24,24,24)" x="0" y="14" style="font-family: Roboto; font-weight: 400; font-stretch: 100%; font-size: 14px;">Qatar's $6.3B bid for </tspan><tspan fill="rgb(24,24,24)" x="0" y="30.796875" style="font-family: Roboto; font-weight: 400; font-stretch: 100%; font-size: 14px;">Manchester United likely </tspan><tspan fill="rgb(24,24,24)" x="0" y="47.59375" style="font-family: Roboto; font-weight: 400; font-stretch: 100%; font-size: 14px;">to win</tspan></text><g id="svelte-1gf2ad6-svg" transform="translate(582, 272)"><g id="callout-line-svg"><path d="M -44.12696870819065,63.000000000000014 Q -15.69622842645937,42.85893521564855 -1.9891251116454438,5.7155753623568275" stroke="rgb(24,24,24)" style="fill: none; stroke-width: 2; stroke-linejoin: miter; stroke-linecap: butt; stroke: rgb(24, 24, 24);"/><path d="M-8.75,-3.75 L 1,0 L -8.75,3.75" transform="translate(-1.98913, 5.71558) rotate(-67.88086575928172) scale(2)" style="fill: rgb(24, 24, 24);"/></g></g><text transform="translate(485.25, 339)" style="text-anchor: middle;"><tspan fill="rgb(24,24,24)" x="0" y="14" style="font-family: Roboto; font-weight: 400; font-stretch: 100%; font-size: 14px;">LIV-PGA Tour merger</tspan><tspan fill="rgb(24,24,24)" x="0" y="30.796875" style="font-family: Roboto; font-weight: 400; font-stretch: 100%; font-size: 14px;">proposal</tspan></text><g id="svelte-1gf2ad6-svg" transform="translate(561, 272)"><g id="callout-line-svg"><path d="M 0,-130 L 0,-6" stroke="rgb(24,24,24)" style="fill: none; stroke-width: 2; stroke-linejoin: miter; stroke-linecap: butt; stroke: rgb(24, 24, 24);"/><path d="M-8.75,-3.75 L 1,0 L -8.75,3.75" transform="translate(0, -6) rotate(90.00000250447815) scale(2)" style="fill: rgb(24, 24, 24);"/></g></g><text transform="translate(521, 88)" style="text-anchor: middle;"><tspan fill="rgb(24,24,24)" x="0" y="14" style="font-family: Roboto; font-weight: 400; font-stretch: 100%; font-size: 14px;">Saudi fund offers to</tspan><tspan fill="rgb(24,24,24)" x="0" y="30.796875" style="font-family: Roboto; font-weight: 400; font-stretch: 100%; font-size: 14px;">invest in ATP men's</tspan><tspan fill="rgb(24,24,24)" x="0" y="47.59375" style="font-family: Roboto; font-weight: 400; font-stretch: 100%; font-size: 14px;">tennis circuit</tspan></text><circle r="7" cx="7" cy="57.21875" fill="rgb(0,144,118)"/><circle r="7" cx="56.109375" cy="57.21875" fill="rgb(114,165,255)"/><circle r="7" cx="120.0625" cy="57.21875" fill="rgb(0,52,76)"/><circle r="7" cx="182.34375" cy="57.21875" fill="rgb(199,30,29)"/></g></g></g></g></svg>