<svg xmlns="http://www.w3.org/2000/svg" xmlns:xlink="http://www.w3.org/1999/xlink" id="exportSvg" width="600" height="535"><defs/><rect width="600" height="535" transform="translate(0, 0)" fill="rgb(255, 255, 255)" style="fill: rgb(255, 255, 255);"/><g><g id="__svelte-dw-svg" clip-path="url(#rect-mask-ZmF5S_0eScOVCyfC3Q3i3)"><clipPath id="rect-mask-ZmF5S_0eScOVCyfC3Q3i3"><rect x="0" y="0" width="600" height="467"/></clipPath><g id="outer-container-svg dw-chart-styles-svg datawrapper-1WoYL-cadg66-svg svelte-crzbxb-svg static-svg" clip-path="url(#rect-mask-PpLSrDJCJy5Hi9xwjC_3g)"><clipPath id="rect-mask-PpLSrDJCJy5Hi9xwjC_3g"><rect x="0" y="0" width="600" height="467"/></clipPath><g id="chart-svg"><g id="table-svg"><g id="tbody-svg"><g id="row-svg" clip-path="url(#rect-mask-pTMQpg_TzJOzO6WWnHwoJ)"><clipPath id="rect-mask-pTMQpg_TzJOzO6WWnHwoJ"><rect x="0" y="46" width="600" height="36"/></clipPath><g id="cell-svg"><rect width="63.21875" height="36" transform="translate(0, 46)" fill="rgb(255,229,156)" style="fill: rgb(255, 229, 156);"/><text transform="translate(8, 46)"><tspan fill="rgb(24,24,24)" x="0" y="22.5" style="font-family: Roboto; font-weight: 700; font-stretch: 100%; font-size: 11px;">1</tspan></text></g><g id="cell-svg"><rect width="201.875" height="36" transform="translate(63.21875, 46)" fill="rgb(255,229,156)" style="fill: rgb(255, 229, 156);"/><text transform="translate(79.21875, 46)"><tspan fill="rgb(24,24,24)" x="0" y="24" style="font-family: Roboto; font-weight: 300; font-stretch: 100%; font-size: 14px;">Cristiano Ronaldo</tspan></text></g><g id="cell-svg"><rect width="182.9375" height="36" transform="translate(265.09375, 46)" fill="rgb(255,229,156)" style="fill: rgb(255, 229, 156);"/><text transform="translate(281.09375, 46)"><tspan fill="rgb(24,24,24)" x="0" y="24" style="font-family: Roboto; font-weight: 300; font-stretch: 100%; font-size: 14px;">Al Nassr</tspan></text></g><g id="cell-svg"><rect width="151.96875" height="36" transform="translate(448.03125, 46)" fill="rgb(255,229,156)" style="fill: rgb(255, 229, 156);"/><rect width="0" height="0" transform="translate(0, 0)" fill="none" style="fill: none;"/><path d="M 0 0 v 0" style="fill: none; stroke-width: 1; stroke: rgba(0, 0, 0, 0.6);"/><rect width="119.96875" height="20" transform="translate(464.03125, 54)" fill="rgb(199,30,29)" style="fill: rgb(199, 30, 29);"/><text transform="translate(581, 54)" style="text-anchor: end;"><tspan fill="rgb(255,255,255)" x="0" y="14.9" style="font-family: Roboto; font-weight: 300; font-stretch: 100%; font-size: 11.9px;">$213M</tspan></text></g></g><g id="row-svg" clip-path="url(#rect-mask-RWBvLbOYti6rhv_dLOp4r)"><clipPath id="rect-mask-RWBvLbOYti6rhv_dLOp4r"><rect x="0" y="82" width="600" height="37"/></clipPath><g id="cell-svg"><rect width="63.21875" height="37" transform="translate(0, 82)" fill="rgb(255,229,156)" style="fill: rgb(255, 229, 156);"/><path d="M 0 82.5 h 63.21875" style="fill: none; stroke-width: 1; stroke: rgba(0, 0, 0, 0.067);"/><text transform="translate(8, 82)"><tspan fill="rgb(24,24,24)" x="0" y="23.5" style="font-family: Roboto; font-weight: 700; font-stretch: 100%; font-size: 11px;">2</tspan></text></g><g id="cell-svg"><rect width="201.875" height="37" transform="translate(63.21875, 82)" fill="rgb(255,229,156)" style="fill: rgb(255, 229, 156);"/><path d="M 63.21875 82.5 h 201.875" style="fill: none; stroke-width: 1; stroke: rgba(0, 0, 0, 0.067);"/><text transform="translate(79.21875, 82)"><tspan fill="rgb(24,24,24)" x="0" y="25" style="font-family: Roboto; font-weight: 300; font-stretch: 100%; font-size: 14px;">Kylian Mbappe</tspan></text></g><g id="cell-svg"><rect width="182.9375" height="37" transform="translate(265.09375, 82)" fill="rgb(255,229,156)" style="fill: rgb(255, 229, 156);"/><path d="M 265.09375 82.5 h 182.9375" style="fill: none; stroke-width: 1; stroke: rgba(0, 0, 0, 0.067);"/><text transform="translate(281.09375, 82)"><tspan fill="rgb(24,24,24)" x="0" y="25" style="font-family: Roboto; font-weight: 300; font-stretch: 100%; font-size: 14px;">PSG</tspan></text></g><g id="cell-svg"><rect width="151.96875" height="37" transform="translate(448.03125, 82)" fill="rgb(255,229,156)" style="fill: rgb(255, 229, 156);"/><path d="M 448.03125 82.5 h 151.96875" style="fill: none; stroke-width: 1; stroke: rgba(0, 0, 0, 0.067);"/><rect width="0" height="0" transform="translate(0, 0)" fill="none" style="fill: none;"/><path d="M 0 0 v 0" style="fill: none; stroke-width: 1; stroke: rgba(0, 0, 0, 0.6);"/><rect width="61.953125" height="20" transform="translate(464.03125, 91)" fill="rgb(199,30,29)" style="fill: rgb(199, 30, 29);"/><text transform="translate(522.984375, 91)" style="text-anchor: end;"><tspan fill="rgb(255,255,255)" x="0" y="14.9" style="font-family: Roboto; font-weight: 300; font-stretch: 100%; font-size: 11.9px;">$110M</tspan></text></g></g><g id="row-svg" clip-path="url(#rect-mask-KrjdC5VNtPa31kNMy9cTT)"><clipPath id="rect-mask-KrjdC5VNtPa31kNMy9cTT"><rect x="0" y="119" width="600" height="37"/></clipPath><g id="cell-svg"><rect width="63.21875" height="37" transform="translate(0, 119)" fill="rgb(255,229,156)" style="fill: rgb(255, 229, 156);"/><path d="M 0 119.5 h 63.21875" style="fill: none; stroke-width: 1; stroke: rgba(0, 0, 0, 0.067);"/><text transform="translate(8, 119)"><tspan fill="rgb(24,24,24)" x="0" y="23.5" style="font-family: Roboto; font-weight: 700; font-stretch: 100%; font-size: 11px;">3</tspan></text></g><g id="cell-svg"><rect width="201.875" height="37" transform="translate(63.21875, 119)" fill="rgb(255,229,156)" style="fill: rgb(255, 229, 156);"/><path d="M 63.21875 119.5 h 201.875" style="fill: none; stroke-width: 1; stroke: rgba(0, 0, 0, 0.067);"/><text transform="translate(79.21875, 119)"><tspan fill="rgb(24,24,24)" x="0" y="25" style="font-family: Roboto; font-weight: 300; font-stretch: 100%; font-size: 14px;">Lionel Messi</tspan></text></g><g id="cell-svg"><rect width="182.9375" height="37" transform="translate(265.09375, 119)" fill="rgb(255,229,156)" style="fill: rgb(255, 229, 156);"/><path d="M 265.09375 119.5 h 182.9375" style="fill: none; stroke-width: 1; stroke: rgba(0, 0, 0, 0.067);"/><text transform="translate(281.09375, 119)"><tspan fill="rgb(24,24,24)" x="0" y="25" style="font-family: Roboto; font-weight: 300; font-stretch: 100%; font-size: 14px;">PSG</tspan></text></g><g id="cell-svg"><rect width="151.96875" height="37" transform="translate(448.03125, 119)" fill="rgb(255,229,156)" style="fill: rgb(255, 229, 156);"/><path d="M 448.03125 119.5 h 151.96875" style="fill: none; stroke-width: 1; stroke: rgba(0, 0, 0, 0.067);"/><rect width="0" height="0" transform="translate(0, 0)" fill="none" style="fill: none;"/><path d="M 0 0 v 0" style="fill: none; stroke-width: 1; stroke: rgba(0, 0, 0, 0.6);"/><rect width="36.609375" height="20" transform="translate(464.03125, 128)" fill="rgb(199,30,29)" style="fill: rgb(199, 30, 29);"/><text transform="translate(503.640625, 128)"><tspan fill="rgb(24,24,24)" x="0" y="14.9" style="font-family: Roboto; font-weight: 300; font-stretch: 100%; font-size: 11.9px;">$65M</tspan></text></g></g><g id="row-svg" clip-path="url(#rect-mask-ifO-MdDZf4GZ9lV8zSbTT)"><clipPath id="rect-mask-ifO-MdDZf4GZ9lV8zSbTT"><rect x="0" y="156" width="600" height="37"/></clipPath><g id="cell-svg"><rect width="63.21875" height="37" transform="translate(0, 156)" fill="rgb(255,229,156)" style="fill: rgb(255, 229, 156);"/><path d="M 0 156.5 h 63.21875" style="fill: none; stroke-width: 1; stroke: rgba(0, 0, 0, 0.067);"/><text transform="translate(8, 156)"><tspan fill="rgb(24,24,24)" x="0" y="23.5" style="font-family: Roboto; font-weight: 700; font-stretch: 100%; font-size: 11px;">4</tspan></text></g><g id="cell-svg"><rect width="201.875" height="37" transform="translate(63.21875, 156)" fill="rgb(255,229,156)" style="fill: rgb(255, 229, 156);"/><path d="M 63.21875 156.5 h 201.875" style="fill: none; stroke-width: 1; stroke: rgba(0, 0, 0, 0.067);"/><text transform="translate(79.21875, 156)"><tspan fill="rgb(24,24,24)" x="0" y="25" style="font-family: Roboto; font-weight: 300; font-stretch: 100%; font-size: 14px;">Neymar</tspan></text></g><g id="cell-svg"><rect width="182.9375" height="37" transform="translate(265.09375, 156)" fill="rgb(255,229,156)" style="fill: rgb(255, 229, 156);"/><path d="M 265.09375 156.5 h 182.9375" style="fill: none; stroke-width: 1; stroke: rgba(0, 0, 0, 0.067);"/><text transform="translate(281.09375, 156)"><tspan fill="rgb(24,24,24)" x="0" y="25" style="font-family: Roboto; font-weight: 300; font-stretch: 100%; font-size: 14px;">PSG</tspan></text></g><g id="cell-svg"><rect width="151.96875" height="37" transform="translate(448.03125, 156)" fill="rgb(255,229,156)" style="fill: rgb(255, 229, 156);"/><path d="M 448.03125 156.5 h 151.96875" style="fill: none; stroke-width: 1; stroke: rgba(0, 0, 0, 0.067);"/><rect width="0" height="0" transform="translate(0, 0)" fill="none" style="fill: none;"/><path d="M 0 0 v 0" style="fill: none; stroke-width: 1; stroke: rgba(0, 0, 0, 0.6);"/><rect width="30.96875" height="20" transform="translate(464.03125, 165)" fill="rgb(199,30,29)" style="fill: rgb(199, 30, 29);"/><text transform="translate(498, 165)"><tspan fill="rgb(24,24,24)" x="0" y="14.9" style="font-family: Roboto; font-weight: 300; font-stretch: 100%; font-size: 11.9px;">$55M</tspan></text></g></g><g id="row-svg" clip-path="url(#rect-mask-NaSxja5Wt08UKPIAxUtOi)"><clipPath id="rect-mask-NaSxja5Wt08UKPIAxUtOi"><rect x="0" y="193" width="600" height="37"/></clipPath><g id="cell-svg"><text transform="translate(8, 193)"><tspan fill="rgb(24,24,24)" x="0" y="23.5" style="font-family: Roboto; font-weight: 700; font-stretch: 100%; font-size: 11px;">5</tspan></text></g><g id="cell-svg"><text transform="translate(79.21875, 193)"><tspan fill="rgb(24,24,24)" x="0" y="25" style="font-family: Roboto; font-weight: 300; font-stretch: 100%; font-size: 14px;">Mo Salah</tspan></text></g><g id="cell-svg"><text transform="translate(281.09375, 193)"><tspan fill="rgb(24,24,24)" x="0" y="25" style="font-family: Roboto; font-weight: 300; font-stretch: 100%; font-size: 14px;">Liverpool</tspan></text></g><g id="cell-svg"><rect width="0" height="0" transform="translate(0, 0)" fill="none" style="fill: none;"/><path d="M 0 0 v 0" style="fill: none; stroke-width: 1; stroke: rgba(0, 0, 0, 0.6);"/><rect width="19.703125" height="20" transform="translate(464.03125, 202)" fill="rgb(199,30,29)" style="fill: rgb(199, 30, 29);"/><text transform="translate(486.734375, 202)"><tspan fill="rgb(24,24,24)" x="0" y="14.9" style="font-family: Roboto; font-weight: 300; font-stretch: 100%; font-size: 11.9px;">$35M</tspan></text></g></g><g id="row-svg" clip-path="url(#rect-mask-VZm0_IMOvm5JCFLd3icL4)"><clipPath id="rect-mask-VZm0_IMOvm5JCFLd3icL4"><rect x="0" y="230" width="600" height="37"/></clipPath><g id="cell-svg"><rect width="63.21875" height="37" transform="translate(0, 230)" fill="rgb(255,229,156)" style="fill: rgb(255, 229, 156);"/><path d="M 0 230.5 h 63.21875" style="fill: none; stroke-width: 1; stroke: rgba(0, 0, 0, 0.067);"/><text transform="translate(8, 230)"><tspan fill="rgb(24,24,24)" x="0" y="23.5" style="font-family: Roboto; font-weight: 700; font-stretch: 100%; font-size: 11px;">6</tspan></text></g><g id="cell-svg"><rect width="201.875" height="37" transform="translate(63.21875, 230)" fill="rgb(255,229,156)" style="fill: rgb(255, 229, 156);"/><path d="M 63.21875 230.5 h 201.875" style="fill: none; stroke-width: 1; stroke: rgba(0, 0, 0, 0.067);"/><text transform="translate(79.21875, 230)"><tspan fill="rgb(24,24,24)" x="0" y="25" style="font-family: Roboto; font-weight: 300; font-stretch: 100%; font-size: 14px;">Erling Haaland</tspan></text></g><g id="cell-svg"><rect width="182.9375" height="37" transform="translate(265.09375, 230)" fill="rgb(255,229,156)" style="fill: rgb(255, 229, 156);"/><path d="M 265.09375 230.5 h 182.9375" style="fill: none; stroke-width: 1; stroke: rgba(0, 0, 0, 0.067);"/><text transform="translate(281.09375, 230)"><tspan fill="rgb(24,24,24)" x="0" y="25" style="font-family: Roboto; font-weight: 300; font-stretch: 100%; font-size: 14px;">Manchester City</tspan></text></g><g id="cell-svg"><rect width="151.96875" height="37" transform="translate(448.03125, 230)" fill="rgb(255,229,156)" style="fill: rgb(255, 229, 156);"/><path d="M 448.03125 230.5 h 151.96875" style="fill: none; stroke-width: 1; stroke: rgba(0, 0, 0, 0.067);"/><rect width="0" height="0" transform="translate(0, 0)" fill="none" style="fill: none;"/><path d="M 0 0 v 0" style="fill: none; stroke-width: 1; stroke: rgba(0, 0, 0, 0.6);"/><rect width="19.703125" height="20" transform="translate(464.03125, 239)" fill="rgb(199,30,29)" style="fill: rgb(199, 30, 29);"/><text transform="translate(486.734375, 239)"><tspan fill="rgb(24,24,24)" x="0" y="14.9" style="font-family: Roboto; font-weight: 300; font-stretch: 100%; font-size: 11.9px;">$35M</tspan></text></g></g><g id="row-svg" clip-path="url(#rect-mask-czYog50Mc3uy9C5KVOkyZ)"><clipPath id="rect-mask-czYog50Mc3uy9C5KVOkyZ"><rect x="0" y="267" width="600" height="37"/></clipPath><g id="cell-svg"><text transform="translate(8, 267)"><tspan fill="rgb(24,24,24)" x="0" y="23.5" style="font-family: Roboto; font-weight: 700; font-stretch: 100%; font-size: 11px;">7</tspan></text></g><g id="cell-svg"><text transform="translate(79.21875, 267)"><tspan fill="rgb(24,24,24)" x="0" y="25" style="font-family: Roboto; font-weight: 300; font-stretch: 100%; font-size: 14px;">Robert Lewandowski</tspan></text></g><g id="cell-svg"><text transform="translate(281.09375, 267)"><tspan fill="rgb(24,24,24)" x="0" y="25" style="font-family: Roboto; font-weight: 300; font-stretch: 100%; font-size: 14px;">Barcelona</tspan></text></g><g id="cell-svg"><rect width="0" height="0" transform="translate(0, 0)" fill="none" style="fill: none;"/><path d="M 0 0 v 0" style="fill: none; stroke-width: 1; stroke: rgba(0, 0, 0, 0.6);"/><rect width="15.203125" height="20" transform="translate(464.03125, 276)" fill="rgb(199,30,29)" style="fill: rgb(199, 30, 29);"/><text transform="translate(482.234375, 276)"><tspan fill="rgb(24,24,24)" x="0" y="14.9" style="font-family: Roboto; font-weight: 300; font-stretch: 100%; font-size: 11.9px;">$27M</tspan></text></g></g><g id="row-svg" clip-path="url(#rect-mask-x5utttk91IJSZuN_SlTWd)"><clipPath id="rect-mask-x5utttk91IJSZuN_SlTWd"><rect x="0" y="304" width="600" height="37"/></clipPath><g id="cell-svg"><text transform="translate(8, 304)"><tspan fill="rgb(24,24,24)" x="0" y="23.5" style="font-family: Roboto; font-weight: 700; font-stretch: 100%; font-size: 11px;">8</tspan></text></g><g id="cell-svg"><text transform="translate(79.21875, 304)"><tspan fill="rgb(24,24,24)" x="0" y="25" style="font-family: Roboto; font-weight: 300; font-stretch: 100%; font-size: 14px;">Eden Hazard</tspan></text></g><g id="cell-svg"><text transform="translate(281.09375, 304)"><tspan fill="rgb(24,24,24)" x="0" y="25" style="font-family: Roboto; font-weight: 300; font-stretch: 100%; font-size: 14px;">Real Madrid</tspan></text></g><g id="cell-svg"><rect width="0" height="0" transform="translate(0, 0)" fill="none" style="fill: none;"/><path d="M 0 0 v 0" style="fill: none; stroke-width: 1; stroke: rgba(0, 0, 0, 0.6);"/><rect width="15.203125" height="20" transform="translate(464.03125, 313)" fill="rgb(199,30,29)" style="fill: rgb(199, 30, 29);"/><text transform="translate(482.234375, 313)"><tspan fill="rgb(24,24,24)" x="0" y="14.9" style="font-family: Roboto; font-weight: 300; font-stretch: 100%; font-size: 11.9px;">$27M</tspan></text></g></g><g id="row-svg" clip-path="url(#rect-mask-GrwR3XQP9bSrwcT4jGp0Y)"><clipPath id="rect-mask-GrwR3XQP9bSrwcT4jGp0Y"><rect x="0" y="341" width="600" height="37"/></clipPath><g id="cell-svg"><text transform="translate(8, 341)"><tspan fill="rgb(24,24,24)" x="0" y="23.5" style="font-family: Roboto; font-weight: 700; font-stretch: 100%; font-size: 11px;">9</tspan></text></g><g id="cell-svg"><text transform="translate(79.21875, 341)"><tspan fill="rgb(24,24,24)" x="0" y="25" style="font-family: Roboto; font-weight: 300; font-stretch: 100%; font-size: 14px;">Andres Iniesta</tspan></text></g><g id="cell-svg"><text transform="translate(281.09375, 341)"><tspan fill="rgb(24,24,24)" x="0" y="25" style="font-family: Roboto; font-weight: 300; font-stretch: 100%; font-size: 14px;">Vissel Kobe</tspan></text></g><g id="cell-svg"><rect width="0" height="0" transform="translate(0, 0)" fill="none" style="fill: none;"/><path d="M 0 0 v 0" style="fill: none; stroke-width: 1; stroke: rgba(0, 0, 0, 0.6);"/><rect width="14.078125" height="20" transform="translate(464.03125, 350)" fill="rgb(199,30,29)" style="fill: rgb(199, 30, 29);"/><text transform="translate(481.109375, 350)"><tspan fill="rgb(24,24,24)" x="0" y="14.9" style="font-family: Roboto; font-weight: 300; font-stretch: 100%; font-size: 11.9px;">$25M</tspan></text></g></g><g id="row-svg" clip-path="url(#rect-mask-pbIQidPT_oPY_n1OL5A1R)"><clipPath id="rect-mask-pbIQidPT_oPY_n1OL5A1R"><rect x="0" y="378" width="600" height="37"/></clipPath><g id="cell-svg"><rect width="63.21875" height="37" transform="translate(0, 378)" fill="rgb(255,229,156)" style="fill: rgb(255, 229, 156);"/><path d="M 0 378.5 h 63.21875" style="fill: none; stroke-width: 1; stroke: rgba(0, 0, 0, 0.067);"/><text transform="translate(8, 378)"><tspan fill="rgb(24,24,24)" x="0" y="23.5" style="font-family: Roboto; font-weight: 700; font-stretch: 100%; font-size: 11px;">10</tspan></text></g><g id="cell-svg"><rect width="201.875" height="37" transform="translate(63.21875, 378)" fill="rgb(255,229,156)" style="fill: rgb(255, 229, 156);"/><path d="M 63.21875 378.5 h 201.875" style="fill: none; stroke-width: 1; stroke: rgba(0, 0, 0, 0.067);"/><text transform="translate(79.21875, 378)"><tspan fill="rgb(24,24,24)" x="0" y="25" style="font-family: Roboto; font-weight: 300; font-stretch: 100%; font-size: 14px;">Kevin De Bruyne</tspan></text></g><g id="cell-svg"><rect width="182.9375" height="37" transform="translate(265.09375, 378)" fill="rgb(255,229,156)" style="fill: rgb(255, 229, 156);"/><path d="M 265.09375 378.5 h 182.9375" style="fill: none; stroke-width: 1; stroke: rgba(0, 0, 0, 0.067);"/><text transform="translate(281.09375, 378)"><tspan fill="rgb(24,24,24)" x="0" y="25" style="font-family: Roboto; font-weight: 300; font-stretch: 100%; font-size: 14px;">Manchester City</tspan></text></g><g id="cell-svg"><rect width="151.96875" height="37" transform="translate(448.03125, 378)" fill="rgb(255,229,156)" style="fill: rgb(255, 229, 156);"/><path d="M 448.03125 378.5 h 151.96875" style="fill: none; stroke-width: 1; stroke: rgba(0, 0, 0, 0.067);"/><rect width="0" height="0" transform="translate(0, 0)" fill="none" style="fill: none;"/><path d="M 0 0 v 0" style="fill: none; stroke-width: 1; stroke: rgba(0, 0, 0, 0.6);"/><rect width="14.078125" height="20" transform="translate(464.03125, 387)" fill="rgb(199,30,29)" style="fill: rgb(199, 30, 29);"/><text transform="translate(481.109375, 387)"><tspan fill="rgb(24,24,24)" x="0" y="14.9" style="font-family: Roboto; font-weight: 300; font-stretch: 100%; font-size: 11.9px;">$25M</tspan></text></g></g><g id="borders-svg"><line x1="0" x2="63.21875" y1="82" y2="82" style="fill: none; stroke-width: 1; stroke: rgba(0, 0, 0, 0.067);"/><line x1="63.21875" x2="265.09375" y1="82" y2="82" style="fill: none; stroke-width: 1; stroke: rgba(0, 0, 0, 0.067);"/><line x1="265.09375" x2="448.03125" y1="82" y2="82" style="fill: none; stroke-width: 1; stroke: rgba(0, 0, 0, 0.067);"/><line x1="448.03125" x2="600" y1="82" y2="82" style="fill: none; stroke-width: 1; stroke: rgba(0, 0, 0, 0.067);"/><line x1="0" x2="63.21875" y1="119" y2="119" style="fill: none; stroke-width: 1; stroke: rgba(0, 0, 0, 0.067);"/><line x1="63.21875" x2="265.09375" y1="119" y2="119" style="fill: none; stroke-width: 1; stroke: rgba(0, 0, 0, 0.067);"/><line x1="265.09375" x2="448.03125" y1="119" y2="119" style="fill: none; stroke-width: 1; stroke: rgba(0, 0, 0, 0.067);"/><line x1="448.03125" x2="600" y1="119" y2="119" style="fill: none; stroke-width: 1; stroke: rgba(0, 0, 0, 0.067);"/><line x1="0" x2="63.21875" y1="156" y2="156" style="fill: none; stroke-width: 1; stroke: rgba(0, 0, 0, 0.067);"/><line x1="63.21875" x2="265.09375" y1="156" y2="156" style="fill: none; stroke-width: 1; stroke: rgba(0, 0, 0, 0.067);"/><line x1="265.09375" x2="448.03125" y1="156" y2="156" style="fill: none; stroke-width: 1; stroke: rgba(0, 0, 0, 0.067);"/><line x1="448.03125" x2="600" y1="156" y2="156" style="fill: none; stroke-width: 1; stroke: rgba(0, 0, 0, 0.067);"/><line x1="0" x2="63.21875" y1="193" y2="193" style="fill: none; stroke-width: 1; stroke: rgba(0, 0, 0, 0.067);"/><line x1="63.21875" x2="265.09375" y1="193" y2="193" style="fill: none; stroke-width: 1; stroke: rgba(0, 0, 0, 0.067);"/><line x1="265.09375" x2="448.03125" y1="193" y2="193" style="fill: none; stroke-width: 1; stroke: rgba(0, 0, 0, 0.067);"/><line x1="448.03125" x2="600" y1="193" y2="193" style="fill: none; stroke-width: 1; stroke: rgba(0, 0, 0, 0.067);"/><line x1="0" x2="63.21875" y1="230" y2="230" style="fill: none; stroke-width: 1; stroke: rgba(0, 0, 0, 0.067);"/><line x1="63.21875" x2="265.09375" y1="230" y2="230" style="fill: none; stroke-width: 1; stroke: rgba(0, 0, 0, 0.067);"/><line x1="265.09375" x2="448.03125" y1="230" y2="230" style="fill: none; stroke-width: 1; stroke: rgba(0, 0, 0, 0.067);"/><line x1="448.03125" x2="600" y1="230" y2="230" style="fill: none; stroke-width: 1; stroke: rgba(0, 0, 0, 0.067);"/><line x1="0" x2="63.21875" y1="267" y2="267" style="fill: none; stroke-width: 1; stroke: rgba(0, 0, 0, 0.067);"/><line x1="63.21875" x2="265.09375" y1="267" y2="267" style="fill: none; stroke-width: 1; stroke: rgba(0, 0, 0, 0.067);"/><line x1="265.09375" x2="448.03125" y1="267" y2="267" style="fill: none; stroke-width: 1; stroke: rgba(0, 0, 0, 0.067);"/><line x1="448.03125" x2="600" y1="267" y2="267" style="fill: none; stroke-width: 1; stroke: rgba(0, 0, 0, 0.067);"/><line x1="0" x2="63.21875" y1="304" y2="304" style="fill: none; stroke-width: 1; stroke: rgba(0, 0, 0, 0.067);"/><line x1="63.21875" x2="265.09375" y1="304" y2="304" style="fill: none; stroke-width: 1; stroke: rgba(0, 0, 0, 0.067);"/><line x1="265.09375" x2="448.03125" y1="304" y2="304" style="fill: none; stroke-width: 1; stroke: rgba(0, 0, 0, 0.067);"/><line x1="448.03125" x2="600" y1="304" y2="304" style="fill: none; stroke-width: 1; stroke: rgba(0, 0, 0, 0.067);"/><line x1="0" x2="63.21875" y1="341" y2="341" style="fill: none; stroke-width: 1; stroke: rgba(0, 0, 0, 0.067);"/><line x1="63.21875" x2="265.09375" y1="341" y2="341" style="fill: none; stroke-width: 1; stroke: rgba(0, 0, 0, 0.067);"/><line x1="265.09375" x2="448.03125" y1="341" y2="341" style="fill: none; stroke-width: 1; stroke: rgba(0, 0, 0, 0.067);"/><line x1="448.03125" x2="600" y1="341" y2="341" style="fill: none; stroke-width: 1; stroke: rgba(0, 0, 0, 0.067);"/><line x1="0" x2="63.21875" y1="378" y2="378" style="fill: none; stroke-width: 1; stroke: rgba(0, 0, 0, 0.067);"/><line x1="63.21875" x2="265.09375" y1="378" y2="378" style="fill: none; stroke-width: 1; stroke: rgba(0, 0, 0, 0.067);"/><line x1="265.09375" x2="448.03125" y1="378" y2="378" style="fill: none; stroke-width: 1; stroke: rgba(0, 0, 0, 0.067);"/><line x1="448.03125" x2="600" y1="378" y2="378" style="fill: none; stroke-width: 1; stroke: rgba(0, 0, 0, 0.067);"/></g></g><g id="thead-svg"><g id="row-svg" clip-path="url(#rect-mask-QY6aJR-zIi62C6IhFVxhq)"><clipPath id="rect-mask-QY6aJR-zIi62C6IhFVxhq"><rect x="0" y="10" width="600" height="36"/></clipPath><g id="cell-svg"><text transform="translate(27.609375, 10)" style="text-anchor: middle;"/></g><g id="cell-svg"><text transform="translate(79.21875, 10)"><tspan fill="rgb(24,24,24)" x="0" y="23.4" style="font-family: Roboto; font-weight: 700; font-stretch: 100%; font-size: 15.4px;">Player</tspan></text></g><g id="cell-svg"><text transform="translate(281.09375, 10)"><tspan fill="rgb(24,24,24)" x="0" y="23.4" style="font-family: Roboto; font-weight: 700; font-stretch: 100%; font-size: 15.4px;">Club</tspan></text></g><g id="cell-svg"><text transform="translate(464.03125, 10)"><tspan fill="rgb(24,24,24)" x="0" y="23.4" style="font-family: Roboto; font-weight: 700; font-stretch: 100%; font-size: 15.4px;">2022 salary</tspan></text></g></g><g id="borders-svg"><line x1="0" x2="63.21875" y1="46" y2="46" style="fill: none; stroke-width: 2; stroke: rgb(51, 51, 51);"/><line x1="63.21875" x2="265.09375" y1="46" y2="46" style="fill: none; stroke-width: 2; stroke: rgb(51, 51, 51);"/><line x1="265.09375" x2="448.03125" y1="46" y2="46" style="fill: none; stroke-width: 2; stroke: rgb(51, 51, 51);"/><line x1="448.03125" x2="600" y1="46" y2="46" style="fill: none; stroke-width: 2; stroke: rgb(51, 51, 51);"/></g></g></g></g><g id="above-footer-svg datawrapper-1WoYL-f9vec7-svg"><text transform="translate(0, 435)"><tspan fill="rgb(101,101,101)" x="0" y="12" style="font-family: Roboto; font-weight: 400; font-stretch: 100%; font-style: italic; font-size: 12px;">Salary refers to wages; player income also include endorsements</tspan></text></g><g id="footer-svg"><text transform="translate(0, 454)"><tspan fill="rgb(136,136,136)" x="0" y="11" style="font-family: Roboto; font-weight: 400; font-stretch: 100%; font-size: 11px;">Source</tspan><tspan fill="rgb(136,136,136)" style="font-family: Roboto; font-weight: 400; font-stretch: 100%; font-size: 11px;">:</tspan><tspan fill="rgb(136,136,136)" dx="2.734375" style="font-family: Roboto; font-weight: 400; font-stretch: 100%; font-size: 11px;">Sporting News</tspan><tspan fill="rgb(136,136,136)" dx="2.734375" style="font-family: Roboto; font-weight: 400; font-stretch: 100%; font-size: 11px;">•</tspan><tspan fill="rgb(136,136,136)" dx="2.734375" style="font-family: Roboto; font-weight: 400; font-stretch: 100%; font-size: 11px;">Created with</tspan><tspan fill="rgb(136,136,136)" dx="2.734375" style="font-family: Roboto; font-weight: 400; font-stretch: 100%; font-size: 11px;">Datawrapper</tspan></text></g></g></g></g></svg>